<svg id="Layer_3" data-name="Layer 3" xmlns="http://www.w3.org/2000/svg" xmlns:xlink="http://www.w3.org/1999/xlink" viewBox="0 0 895.08 107.91"><defs><style>.cls-1{fill:url(#linear-gradient);}.cls-2{fill:#b0b5b8;}.cls-3{fill:url(#linear-gradient-2);}.cls-4{fill:url(#linear-gradient-3);}.cls-5{fill:url(#linear-gradient-4);}.cls-6{fill:url(#linear-gradient-5);}.cls-7{fill:url(#linear-gradient-6);}.cls-8{fill:url(#linear-gradient-7);}.cls-9{fill:url(#linear-gradient-8);}.cls-10{fill:url(#linear-gradient-9);}.cls-11{fill:url(#linear-gradient-10);}.cls-12{fill:#77cfe7;}.cls-13{fill:url(#linear-gradient-11);}.cls-14{fill:#16202a;}</style><linearGradient id="linear-gradient" x1="45.79" y1="63.01" x2="45.79" y2="0.25" gradientUnits="userSpaceOnUse"><stop offset="0" stop-color="#104069"/><stop offset="1"/></linearGradient><linearGradient id="linear-gradient-2" x1="142.85" y1="63.01" x2="142.85" y2="0.25" xlink:href="#linear-gradient"/><linearGradient id="linear-gradient-3" x1="246.88" y1="63.01" x2="246.88" y2="0.25" xlink:href="#linear-gradient"/><linearGradient id="linear-gradient-4" x1="327.36" y1="42.63" x2="327.36" y2="29.42" xlink:href="#linear-gradient"/><linearGradient id="linear-gradient-5" x1="479.28" y1="42.63" x2="479.28" y2="29.42" xlink:href="#linear-gradient"/><linearGradient id="linear-gradient-6" x1="853" y1="63.01" x2="853" y2="0.25" xlink:href="#linear-gradient"/><linearGradient id="linear-gradient-7" x1="548.89" y1="63.01" x2="548.89" y2="0.25" xlink:href="#linear-gradient"/><linearGradient id="linear-gradient-8" x1="645.95" y1="63.01" x2="645.95" y2="0.25" xlink:href="#linear-gradient"/><linearGradient id="linear-gradient-9" x1="749.98" y1="63.01" x2="749.98" y2="0.25" xlink:href="#linear-gradient"/><linearGradient id="linear-gradient-10" x1="366.29" y1="63.01" x2="366.29" y2="0.25" gradientUnits="userSpaceOnUse"><stop offset="0" stop-color="#0275b2"/><stop offset="1" stop-color="#77cfe7"/></linearGradient><linearGradient id="linear-gradient-11" x1="428.69" y1="63.01" x2="428.69" y2="0.25" xlink:href="#linear-gradient-10"/></defs><title>DamItDams-Logo-Dark</title><path class="cls-1" d="M7.4,63V20.17H22.8V50.95h47a5.66,5.66,0,0,0,4.27-1.79A5.89,5.89,0,0,0,75.76,45V18.28a5.9,5.9,0,0,0-1.69-4.17,5.66,5.66,0,0,0-4.27-1.79H7.3L.43.25H72a18.05,18.05,0,0,1,7.45,1.56A20.39,20.39,0,0,1,85.52,6a19.86,19.86,0,0,1,4.12,6,17.75,17.75,0,0,1,1.52,7.24v24.6a18.49,18.49,0,0,1-1.52,7.46A19.51,19.51,0,0,1,79.45,61.5,18.51,18.51,0,0,1,72,63Z"/><path class="cls-2" d="M72,.5A17.8,17.8,0,0,1,79.34,2a20.14,20.14,0,0,1,6,4.12,19.61,19.61,0,0,1,4.07,6,17.51,17.51,0,0,1,1.49,7.13v24.6a18.25,18.25,0,0,1-1.5,7.36A19.26,19.26,0,0,1,79.35,61.27,18.26,18.26,0,0,1,72,62.76H7.65V20.42h14.9V51.2H69.8a5.91,5.91,0,0,0,4.45-1.87A6.14,6.14,0,0,0,76,45V18.28a6.14,6.14,0,0,0-1.76-4.34,5.9,5.9,0,0,0-4.45-1.87H7.44L.86.5H72M72,0H0L7.15,12.56H69.8a5.4,5.4,0,0,1,4.09,1.71,5.63,5.63,0,0,1,1.63,4V45a5.63,5.63,0,0,1-1.63,4A5.4,5.4,0,0,1,69.8,50.7H23.05V19.92H7.15V63.26H72a18.67,18.67,0,0,0,7.56-1.54A19.76,19.76,0,0,0,89.87,51.4a18.66,18.66,0,0,0,1.54-7.56V19.24a17.92,17.92,0,0,0-1.54-7.34A20,20,0,0,0,85.7,5.8a20.54,20.54,0,0,0-6.15-4.22A18.21,18.21,0,0,0,72,0Z"/><polygon class="cls-3" points="173.09 63.01 167.47 53.43 127.08 53.43 133.99 41.46 160.72 41.46 142.9 10.04 112.62 63.01 95.8 63.01 131.88 0.25 153.82 0.25 189.91 63.01 173.09 63.01"/><path class="cls-2" d="M153.68.5l35.8,62.26H173.23l-5.48-9.33-.14-.25h-40.1l6.63-11.48h27l-.42-.75L143.33,10.3l-.43-.76-.44.76-30,52.47H96.23L132,.5h21.65M154,0H131.74L95.36,63.26h17.4L142.9,10.54l17.4,30.66H133.85l-7.2,12.48h40.68l5.62,9.58h17.4L154,0Z"/><polygon class="cls-4" points="280.74 63.01 280.74 18.4 251.89 63.01 241.79 63.01 213.03 18.39 213.03 63.01 197.62 63.01 197.62 0.25 217.18 0.25 246.92 47.2 278.08 0.25 296.14 0.25 296.14 63.01 280.74 63.01"/><path class="cls-2" d="M295.89.5V62.76H281V17.55L280.07,19,251.75,62.76h-9.82L213.7,19l-.92-1.43V62.76h-14.9V.5H217L246.5,47l.41.65.43-.64L278.21.5h17.68m.5-.5H277.94l-31,46.74L217.32,0H197.37V63.26h15.9v-44l28.38,44H252l28.47-44v44h15.9V0Z"/><rect class="cls-5" x="307.19" y="29.42" width="40.36" height="13.21"/><path class="cls-2" d="M347.29,29.67V42.38H307.44V29.67h39.86m.5-.5H306.94V42.88h40.86V29.17Z"/><rect class="cls-6" x="459.1" y="29.42" width="40.36" height="13.21"/><path class="cls-2" d="M499.21,29.67V42.38H459.35V29.67h39.86m.5-.5H458.85V42.88h40.86V29.17Z"/><path class="cls-7" d="M812.66,63V50.95h62A4.9,4.9,0,0,0,879.52,46V42.53a4.9,4.9,0,0,0-4.91-4.91H827.17a19.44,19.44,0,0,1-6.25-1,15.68,15.68,0,0,1-5.1-2.81,13.46,13.46,0,0,1-3.41-4.31,12.4,12.4,0,0,1-1.25-5.6V15.46a14.86,14.86,0,0,1,4.67-10.93,15.44,15.44,0,0,1,5.1-3.16A17.4,17.4,0,0,1,827.17.25h64.5V12.31H831.39A4.6,4.6,0,0,0,828,13.75a5.17,5.17,0,0,0-1.48,3.46v3.44a4.9,4.9,0,0,0,4.91,4.91h47.45c5.58,0,9.68,1.48,12.2,4.39s3.8,6.8,3.8,11.52V47a18.34,18.34,0,0,1-1,5.81A15.5,15.5,0,0,1,891,58a14.2,14.2,0,0,1-4.92,3.67A17.15,17.15,0,0,1,878.83,63Z"/><path class="cls-2" d="M891.42.5V12.06h-60a4.85,4.85,0,0,0-3.61,1.51,5.42,5.42,0,0,0-1.55,3.64v3.43a5.15,5.15,0,0,0,5.16,5.16h47.45c5.5,0,9.54,1.45,12,4.31s3.74,6.7,3.74,11.36V47a18.11,18.11,0,0,1-.94,5.73,15.25,15.25,0,0,1-2.85,5.06A14,14,0,0,1,886,61.4a16.92,16.92,0,0,1-7.13,1.36H812.91V51.2h61.71A5.15,5.15,0,0,0,879.77,46V42.53a5.15,5.15,0,0,0-5.16-5.16H827.17a19.19,19.19,0,0,1-6.17-1,15.41,15.41,0,0,1-5-2.76,13.2,13.2,0,0,1-3.35-4.23,12.15,12.15,0,0,1-1.22-5.49V15.46A14.61,14.61,0,0,1,816,4.71a15.18,15.18,0,0,1,5-3.1A17.15,17.15,0,0,1,827.17.5h64.25m.5-.5H827.17a17.57,17.57,0,0,0-6.33,1.14,15.61,15.61,0,0,0-5.18,3.21,15.11,15.11,0,0,0-4.75,11.11V23.9a12.59,12.59,0,0,0,1.27,5.71A13.63,13.63,0,0,0,815.66,34a15.84,15.84,0,0,0,5.18,2.86,19.6,19.6,0,0,0,6.33,1h47.45a4.65,4.65,0,0,1,4.66,4.66V46a4.65,4.65,0,0,1-4.66,4.66H812.41V63.26h66.42a17.33,17.33,0,0,0,7.34-1.41,14.38,14.38,0,0,0,5-3.73,15.67,15.67,0,0,0,2.94-5.23,18.52,18.52,0,0,0,1-5.89V41.47q0-7.2-3.87-11.69T878.83,25.3H831.38a4.65,4.65,0,0,1-4.66-4.66V17.22a4.9,4.9,0,0,1,1.41-3.29,4.34,4.34,0,0,1,3.25-1.36h60.54V0Z"/><path class="cls-8" d="M510.5,63V20.17h15.4V50.95h47a5.67,5.67,0,0,0,4.27-1.79A5.9,5.9,0,0,0,578.85,45V18.28a5.9,5.9,0,0,0-1.69-4.17,5.67,5.67,0,0,0-4.27-1.79h-62.5L503.53.25h71.56a18.05,18.05,0,0,1,7.45,1.56A20.41,20.41,0,0,1,588.62,6a19.86,19.86,0,0,1,4.12,6,17.76,17.76,0,0,1,1.52,7.24v24.6a18.49,18.49,0,0,1-1.52,7.46,19.51,19.51,0,0,1-10.19,10.2A18.51,18.51,0,0,1,575.09,63Z"/><path class="cls-2" d="M575.09.5A17.8,17.8,0,0,1,582.44,2a20.14,20.14,0,0,1,6,4.12,19.61,19.61,0,0,1,4.07,6A17.51,17.51,0,0,1,594,19.24v24.6a18.25,18.25,0,0,1-1.5,7.36,19.26,19.26,0,0,1-10.07,10.07,18.26,18.26,0,0,1-7.36,1.5H510.75V20.42h14.9V51.2h47.24a5.91,5.91,0,0,0,4.45-1.87A6.14,6.14,0,0,0,579.1,45V18.28a6.14,6.14,0,0,0-1.76-4.34,5.9,5.9,0,0,0-4.45-1.87H510.54L504,.5h71.13m0-.5h-72l7.15,12.56h62.65A5.4,5.4,0,0,1,577,14.28a5.63,5.63,0,0,1,1.63,4V45A5.63,5.63,0,0,1,577,49a5.4,5.4,0,0,1-4.09,1.71H526.15V19.92h-15.9V63.26h64.84a18.67,18.67,0,0,0,7.56-1.54A19.76,19.76,0,0,0,593,51.4a18.66,18.66,0,0,0,1.54-7.56V19.24A17.92,17.92,0,0,0,593,11.91,20,20,0,0,0,588.8,5.8a20.54,20.54,0,0,0-6.15-4.22A18.21,18.21,0,0,0,575.09,0Z"/><polygon class="cls-9" points="676.19 63.01 670.57 53.43 630.17 53.43 637.09 41.46 663.82 41.46 646 10.04 615.71 63.01 598.89 63.01 634.98 0.25 656.92 0.25 693.01 63.01 676.19 63.01"/><path class="cls-2" d="M656.78.5l35.8,62.26H676.33l-5.48-9.33-.14-.25h-40.1l6.63-11.48h27l-.42-.75L646.43,10.3,646,9.53l-.44.76-30,52.47H599.33L635.13.5h21.65m.29-.5H634.84L598.46,63.26h17.4L646,10.54l17.4,30.66H636.95l-7.2,12.48h40.68L676,63.26h17.4L657.07,0Z"/><polygon class="cls-10" points="783.84 63.01 783.84 18.4 754.99 63.01 744.89 63.01 716.12 18.39 716.12 63.01 700.72 63.01 700.72 0.25 720.28 0.25 750.02 47.2 781.17 0.25 799.24 0.25 799.24 63.01 783.84 63.01"/><path class="cls-2" d="M799,.5V62.76h-14.9V17.55L783.17,19,754.85,62.76H745L716.79,19l-.92-1.43V62.76H701V.5h19.17L749.6,47l.41.65.43-.64L781.31.5H799m.5-.5H781L750,46.74,720.42,0H700.47V63.26h15.9v-44l28.38,44h10.37l28.47-44v44h15.9V0Z"/><rect class="cls-11" x="358.58" y="0.25" width="15.4" height="62.76"/><path class="cls-12" d="M373.74.5V62.76h-14.9V.5h14.9m.5-.5h-15.9V63.26h15.9V0Z"/><polygon class="cls-13" points="416.57 63.01 416.57 12.31 382.4 12.31 382.4 0.25 474.99 0.25 465.75 12.31 431.98 12.31 431.98 63.01 416.57 63.01"/><path class="cls-12" d="M474.49.5l-8.86,11.56h-33.9v50.7h-14.9V12.06H382.65V.5h91.84m1-.5H382.15V12.56h34.18v50.7h15.9V12.56h33.65L475.5,0Z"/><path class="cls-14" d="M81.28,107.37,86,85.18H96.61A4.15,4.15,0,0,1,100,86.35c.65.8.8,2.05.44,3.72l-.92,4.31c-.71,3.34-2.68,5-6,5h-7.7l-1.71,8Zm5.05-10.55H94.1a2.38,2.38,0,0,0,2.52-2.07l1-4.9a1.56,1.56,0,0,0-1.73-2.14H88.27Z"/><path class="cls-2" d="M96.61,85.43a3.93,3.93,0,0,1,3.18,1.08c.6.74.73,1.92.39,3.51l-.92,4.31c-.68,3.21-2.57,4.77-5.77,4.77h-7.9l-.08.4-1.62,7.63h-2.3L86.2,85.43H96.61M86,97.07H94.1a2.6,2.6,0,0,0,2.76-2.27l1-4.9a1.81,1.81,0,0,0-2-2.45H88.06l-.08.4-1.83,8.62-.13.6M96.61,84.93H85.79L81,107.62h3.32l1.71-8h7.5q5.16,0,6.26-5.16l.92-4.31q1.1-5.2-4.06-5.2Zm-10,11.64L88.47,88h7.46q1.87,0,1.48,1.84l-1,4.9a2.12,2.12,0,0,1-2.27,1.87Z"/><path class="cls-14" d="M113.32,107.37a4,4,0,0,1-3.28-1.14c-.63-.78-.77-2-.43-3.62l1.5-7.07c.69-3.25,2.61-4.83,5.86-4.83h4.6a4.05,4.05,0,0,1,3.29,1.14c.63.77.77,2,.43,3.59l-1.5,7.07c-.7,3.27-2.61,4.87-5.86,4.87ZM116.48,93a2.43,2.43,0,0,0-2.59,2.11l-1.64,7.73a2,2,0,0,0,.23,1.68,1.88,1.88,0,0,0,1.54.57h4.44a2.43,2.43,0,0,0,2.56-2.14l1.64-7.73a1.92,1.92,0,0,0-.23-1.65,1.85,1.85,0,0,0-1.51-.56Z"/><path class="cls-2" d="M121.58,91a3.83,3.83,0,0,1,3.09,1,4,4,0,0,1,.38,3.38l-1.5,7.07c-.67,3.14-2.51,4.67-5.62,4.67h-4.6a3.82,3.82,0,0,1-3.09-1c-.58-.72-.71-1.87-.38-3.42l1.5-7.07C112,92.47,113.86,91,117,91h4.6M114,105.32h4.44a2.66,2.66,0,0,0,2.81-2.34l1.64-7.73a2.15,2.15,0,0,0-.28-1.86,2.08,2.08,0,0,0-1.71-.65h-4.44a2.66,2.66,0,0,0-2.83,2.3L112,102.78a2.18,2.18,0,0,0,.28,1.88,2.11,2.11,0,0,0,1.73.66m7.56-14.87H117q-5,0-6.1,5l-1.5,7.07q-1.08,5.06,4,5.06h4.6q5,0,6.11-5.06l1.5-7.07q1.07-5-4-5ZM114,104.82q-1.94,0-1.53-1.94l1.64-7.73a2.17,2.17,0,0,1,2.35-1.91h4.44q1.91,0,1.5,1.91l-1.64,7.73a2.17,2.17,0,0,1-2.32,1.94Z"/><path class="cls-14" d="M135.14,107.37l3.14-14.77a5.52,5.52,0,0,1,4.57-1.9h3.29l1.09,1L147,93h-4.07a2.91,2.91,0,0,0-2.12.73l-.05.05-2.89,13.59Z"/><path class="cls-2" d="M146.05,91l.91.8-.21,1h-3.87a3.15,3.15,0,0,0-2.3.8l-.11.11,0,.15-2.83,13.32h-2.17l3.06-14.41A5.23,5.23,0,0,1,142.85,91h3.2m.19-.5h-3.39a5.71,5.71,0,0,0-4.81,2l-3.22,15.13H138l2.91-13.71a2.66,2.66,0,0,1,1.95-.66h4.27l.36-1.68-1.27-1.12Z"/><path class="cls-14" d="M159.56,107.37a4,4,0,0,1-3.28-1.14c-.63-.78-.77-2-.43-3.62l3.7-17.43h2.68l-1.17,5.52h6.08L166.65,93h-6.08l-2.09,9.83a2,2,0,0,0,.23,1.68,1.88,1.88,0,0,0,1.54.57h4.16l-.27,1.27-1.6,1Z"/><path class="cls-2" d="M161.92,85.43l-1,4.92-.13.6h6.08l-.38,1.8h-6.08l-.08.4-2,9.63a2.18,2.18,0,0,0,.28,1.88,2.11,2.11,0,0,0,1.73.66h3.85l-.18.87-1.45.93h-2.91a3.82,3.82,0,0,1-3.09-1c-.58-.72-.71-1.87-.38-3.42l3.66-17.23h2.17m.62-.5h-3.19l-3.75,17.63q-1.08,5.06,4,5.06h3.06l1.75-1.12.36-1.68h-4.47q-1.94,0-1.53-1.94l2-9.63h6.08l.59-2.8h-6.08l1.17-5.52Z"/><path class="cls-14" d="M179.16,107.37a4.09,4.09,0,0,1-3.32-1.15c-.63-.77-.77-2-.43-3.58.69-3.25,2.62-4.83,5.89-4.83h5.76l.55-2.6a1.91,1.91,0,0,0-.23-1.65,1.85,1.85,0,0,0-1.52-.56h-6.73l.27-1.27,1.6-1h5.52a4.05,4.05,0,0,1,3.29,1.14c.63.77.77,2,.43,3.59l-2.54,11.94Zm1.67-7.56a2.43,2.43,0,0,0-2.6,2.14l-.19.89a2,2,0,0,0,.23,1.68,1.88,1.88,0,0,0,1.54.57h5.69l1.12-5.27Z"/><path class="cls-2" d="M186.52,91a3.83,3.83,0,0,1,3.09,1,4,4,0,0,1,.38,3.38l-2.49,11.74h-8.34a3.87,3.87,0,0,1-3.13-1.05,4,4,0,0,1-.38-3.37c.66-3.12,2.51-4.64,5.64-4.64h6l.08-.4.51-2.4a2.15,2.15,0,0,0-.28-1.86,2.08,2.08,0,0,0-1.71-.65h-6.42l.18-.87,1.45-.93h5.44m-6.7,14.37h5.9l.08-.4,1-4.77.13-.6h-6.11a2.68,2.68,0,0,0-2.84,2.34l-.19.89a2.18,2.18,0,0,0,.28,1.88,2.11,2.11,0,0,0,1.73.66m6.7-14.87h-5.59l-1.75,1.12-.36,1.68h7q1.91,0,1.5,1.91l-.51,2.4H181.3q-5.06,0-6.13,5t4,5h8.75l2.58-12.13q1.07-5-4-5Zm-6.7,14.37q-1.94,0-1.53-1.94l.19-.89a2.19,2.19,0,0,1,2.35-1.94h5.49l-1,4.77Z"/><path class="cls-14" d="M200.35,107.37l5.07-23.83h2.68l-1.52,7.17H213a4.05,4.05,0,0,1,3.29,1.14c.63.77.77,2,.43,3.59l-1.5,7.07c-.7,3.27-2.61,4.87-5.86,4.87Zm3.17-2.29h6.36a2.43,2.43,0,0,0,2.56-2.14l1.64-7.73a1.92,1.92,0,0,0-.23-1.65,1.85,1.85,0,0,0-1.51-.56h-6.25Z"/><path class="cls-2" d="M207.78,83.79l-1.4,6.56-.13.6H213a3.83,3.83,0,0,1,3.09,1,4,4,0,0,1,.38,3.38l-1.5,7.07c-.67,3.14-2.51,4.67-5.62,4.67h-8.69l5-23.33h2.17m-4.58,21.54h6.67a2.66,2.66,0,0,0,2.81-2.34l1.64-7.73A2.15,2.15,0,0,0,214,93.4a2.08,2.08,0,0,0-1.71-.65h-6.46l-.08.4-2.46,11.57-.13.6m5.2-22h-3.19L200,107.62h9.31q5,0,6.11-5.06l1.5-7.07q1.07-5-4-5h-6.12l1.52-7.17Zm-4.58,21.54,2.46-11.57h6.05q1.91,0,1.5,1.91l-1.64,7.73a2.17,2.17,0,0,1-2.32,1.94Z"/><path class="cls-14" d="M231.41,107.66a4.23,4.23,0,0,1-3.35-1.23c-.68-.84-.84-2.16-.47-3.92l4-19h2.68l-4.08,19.2a2.3,2.3,0,0,0,.25,1.91,2.06,2.06,0,0,0,1.42.73Z"/><path class="cls-2" d="M234,83.79l-4,18.9a2.53,2.53,0,0,0,.3,2.11,2.17,2.17,0,0,0,1.32.78l-.39,1.84a3.85,3.85,0,0,1-3-1.13c-.63-.78-.77-2-.42-3.71l4-18.78H234m.62-.5h-3.19l-4.07,19.17q-1.16,5.46,4.27,5.46l.59-2.76q-2.2-.16-1.73-2.37l4.14-19.5Z"/><path class="cls-14" d="M247.32,107.37a4,4,0,0,1-3.28-1.14c-.63-.78-.77-2-.43-3.62l1.5-7.07c.69-3.25,2.61-4.83,5.86-4.83h4.27a4.05,4.05,0,0,1,3.29,1.14c.63.77.77,2,.43,3.59L258,100H246.85l-.61,2.86a1.94,1.94,0,0,0,.23,1.67,1.88,1.88,0,0,0,1.54.57h8.24l-.27,1.27-1.57,1ZM250.48,93a2.41,2.41,0,0,0-2.59,2.11L247.28,98h8.47l.59-2.76a1.92,1.92,0,0,0-.23-1.65,1.85,1.85,0,0,0-1.51-.56Z"/><path class="cls-2" d="M255.25,91a3.83,3.83,0,0,1,3.1,1,4,4,0,0,1,.38,3.38l-.92,4.34H246.65l-.08.4-.57,2.66a2.18,2.18,0,0,0,.28,1.88,2.11,2.11,0,0,0,1.73.66h7.93l-.19.87-1.42.92h-7a3.82,3.82,0,0,1-3.09-1c-.58-.72-.71-1.87-.38-3.42l1.5-7.07C246,92.47,247.86,91,251,91h4.27M247,98.22h9l.08-.4.55-2.56a2.15,2.15,0,0,0-.28-1.86,2.08,2.08,0,0,0-1.71-.65h-4.11a2.66,2.66,0,0,0-2.83,2.3l-.55,2.56-.13.6m8.28-7.77H251q-5,0-6.1,5l-1.5,7.07q-1.08,5.06,4,5.06h7.17l1.72-1.12.36-1.68H248q-1.94,0-1.53-1.94l.57-2.66H258.2l1-4.73q1.07-5-4-5Zm-7.66,7.27.55-2.56a2.17,2.17,0,0,1,2.35-1.91h4.11q1.91,0,1.5,1.91l-.55,2.56Z"/><polygon class="cls-14" points="300.53 107.37 299.69 92 292.35 107.37 287.32 107.37 286.97 85.72 287.47 85.18 289.81 85.18 290.07 104.84 290.87 104.84 299.21 87.58 302.14 87.58 303.1 104.84 303.93 104.84 312.52 85.18 314.9 85.18 315.12 85.63 305.56 107.37 300.53 107.37"/><path class="cls-2" d="M314.74,85.43l.1.2-9.45,21.48h-4.63L300,93l-.11-2L299,92.77l-6.85,14.35h-4.62l-.34-21.31.36-.38h2l.25,19.17v.49H291l.14-.28,8.2-17h2.53l.94,16.79,0,.47h1.23l.13-.3,8.46-19.36h2.06m.31-.5h-2.7l-8.59,19.66h-.43l-1-17.26h-3.32l-8.34,17.26h-.39l-.26-19.66h-2.7l-.64.69.36,22h5.43l7-14.63.8,14.63h5.43l9.67-22-.35-.69Z"/><path class="cls-14" d="M324.53,107.37a4.09,4.09,0,0,1-3.32-1.15c-.63-.77-.77-2-.43-3.58.69-3.25,2.62-4.83,5.89-4.83h5.76l.55-2.6a1.91,1.91,0,0,0-.23-1.65,1.85,1.85,0,0,0-1.52-.56h-6.73l.27-1.27,1.6-1h5.52a4.05,4.05,0,0,1,3.29,1.14c.63.77.77,2,.43,3.59l-2.54,11.94Zm1.67-7.56a2.43,2.43,0,0,0-2.6,2.14l-.19.89a1.94,1.94,0,0,0,.23,1.67,1.88,1.88,0,0,0,1.54.57h5.69L332,99.81Z"/><path class="cls-2" d="M331.9,91a3.83,3.83,0,0,1,3.1,1,4,4,0,0,1,.38,3.38l-2.49,11.74h-8.34a3.87,3.87,0,0,1-3.13-1.05,4,4,0,0,1-.38-3.37c.66-3.12,2.51-4.64,5.64-4.64h6l.08-.4.51-2.4a2.15,2.15,0,0,0-.28-1.86,2.08,2.08,0,0,0-1.71-.65h-6.42l.18-.87,1.45-.93h5.44m-6.7,14.37h5.9l.08-.4,1-4.77.13-.6h-6.11a2.68,2.68,0,0,0-2.84,2.34l-.19.89a2.18,2.18,0,0,0,.28,1.88,2.11,2.11,0,0,0,1.73.66m6.7-14.87h-5.59l-1.75,1.12-.36,1.68h7q1.91,0,1.5,1.91l-.51,2.4h-5.56q-5.06,0-6.13,5t4,5h8.75l2.58-12.13q1.07-5-4-5Zm-6.7,14.37q-1.94,0-1.53-1.94l.19-.89a2.19,2.19,0,0,1,2.35-1.94h5.49l-1,4.77Z"/><path class="cls-14" d="M350.31,107.37a4,4,0,0,1-3.28-1.14c-.63-.78-.77-2-.43-3.62l3.7-17.43H353l-1.17,5.52h6.08L357.41,93h-6.08l-2.09,9.83a2,2,0,0,0,.23,1.68,1.88,1.88,0,0,0,1.54.57h4.16l-.27,1.27-1.6,1Z"/><path class="cls-2" d="M352.68,85.43l-1,4.92-.13.6h6.08l-.38,1.8h-6.08l-.08.4-2,9.63a2.18,2.18,0,0,0,.28,1.88,2.11,2.11,0,0,0,1.73.66h3.85l-.18.87-1.45.93h-2.91a3.82,3.82,0,0,1-3.09-1c-.58-.72-.71-1.87-.38-3.42l3.66-17.23h2.17m.62-.5H350.1l-3.75,17.63q-1.08,5.06,4,5.06h3.06l1.75-1.12.36-1.68H351q-1.94,0-1.53-1.94l2-9.63h6.08l.59-2.8h-6.08l1.17-5.52Z"/><path class="cls-14" d="M370.53,107.37a4,4,0,0,1-3.28-1.14c-.63-.78-.77-2-.43-3.62l1.5-7.07c.69-3.25,2.61-4.83,5.86-4.83h4.27a4.05,4.05,0,0,1,3.29,1.14c.63.77.77,2,.43,3.59l-1,4.54H370.06l-.61,2.86a2,2,0,0,0,.23,1.68,1.88,1.88,0,0,0,1.54.57h8.24l-.27,1.27-1.57,1ZM373.69,93a2.41,2.41,0,0,0-2.59,2.11L370.49,98H379l.59-2.76a1.92,1.92,0,0,0-.23-1.65A1.85,1.85,0,0,0,377.8,93Z"/><path class="cls-2" d="M378.46,91a3.83,3.83,0,0,1,3.1,1,4,4,0,0,1,.38,3.38L381,99.72H369.86l-.08.4-.57,2.66a2.18,2.18,0,0,0,.28,1.88,2.11,2.11,0,0,0,1.73.66h7.93l-.19.87-1.42.92h-7a3.82,3.82,0,0,1-3.09-1c-.58-.72-.71-1.87-.38-3.42l1.5-7.07c.66-3.12,2.5-4.64,5.61-4.64h4.27m-8.28,7.27h9l.08-.4.55-2.56a2.15,2.15,0,0,0-.28-1.86,2.08,2.08,0,0,0-1.71-.65h-4.11a2.66,2.66,0,0,0-2.83,2.3l-.55,2.56-.13.6m8.28-7.77h-4.27q-5,0-6.1,5l-1.5,7.07q-1.08,5.06,4,5.06h7.17l1.72-1.12.36-1.68h-8.55q-1.94,0-1.53-1.94l.57-2.66h11.15l1-4.73q1.07-5-4-5Zm-7.66,7.27.55-2.56a2.17,2.17,0,0,1,2.35-1.91h4.11q1.91,0,1.5,1.91l-.55,2.56Z"/><path class="cls-14" d="M392,107.37l3.14-14.77a5.52,5.52,0,0,1,4.57-1.9H403l1.09,1L403.84,93h-4.07a2.91,2.91,0,0,0-2.12.73l-.05.05-2.89,13.59Z"/><path class="cls-2" d="M402.93,91l.91.8-.21,1h-3.87a3.15,3.15,0,0,0-2.3.8l-.11.11,0,.15-2.83,13.32h-2.17l3.06-14.41A5.23,5.23,0,0,1,399.73,91h3.2m.19-.5h-3.39a5.71,5.71,0,0,0-4.81,2l-3.22,15.13h3.19l2.91-13.71a2.66,2.66,0,0,1,1.95-.66H404l.36-1.68-1.27-1.12Z"/><polygon class="cls-14" points="412.44 98.72 412.92 96.46 421.81 96.46 421.33 98.72 412.44 98.72"/><path class="cls-2" d="M421.5,96.71l-.37,1.76h-8.38l.37-1.76h8.38m.62-.5h-9.4L412.13,99h9.4l.59-2.76Z"/><polygon class="cls-14" points="431.35 107.37 436.06 85.18 450.55 85.18 450.01 87.7 438.34 87.7 436.68 95.5 447.37 95.5 446.83 98.03 436.14 98.03 434.16 107.37 431.35 107.37"/><path class="cls-2" d="M450.24,85.43l-.43,2H438.14l-.08.4-1.55,7.3-.13.6h10.69l-.43,2H435.94l-.08.4-1.9,8.94h-2.3l4.61-21.69h14m.62-.5h-15L431,107.62h3.32l2-9.34H447l.64-3H437l1.55-7.3h11.67l.64-3Z"/><polygon class="cls-14" points="457.03 107.37 460.57 90.7 463.25 90.7 459.71 107.37 457.03 107.37"/><path class="cls-2" d="M462.94,91l-3.44,16.17h-2.17L460.77,91h2.17m.62-.5h-3.19l-3.65,17.17h3.19l3.65-17.17Z"/><polygon class="cls-14" points="461.2 87.11 461.84 84.13 464.75 84.13 464.11 87.11 461.2 87.11"/><path class="cls-2" d="M464.44,84.38l-.53,2.49h-2.4l.53-2.49h2.4m.62-.5h-3.42l-.74,3.49h3.42l.74-3.49Z"/><path class="cls-14" d="M477.2,107.66a4.24,4.24,0,0,1-3.35-1.23c-.68-.84-.84-2.16-.47-3.92l4-19h2.68L476,102.73a2.3,2.3,0,0,0,.25,1.91,2.06,2.06,0,0,0,1.42.73Z"/><path class="cls-2" d="M479.79,83.79l-4,18.9a2.53,2.53,0,0,0,.3,2.11,2.17,2.17,0,0,0,1.32.78l-.39,1.84a3.85,3.85,0,0,1-3-1.13c-.63-.78-.77-2-.42-3.71l4-18.78h2.17m.62-.5h-3.19l-4.07,19.17q-1.16,5.46,4.27,5.46l.59-2.76q-2.2-.16-1.73-2.37l4.14-19.5Z"/><path class="cls-14" d="M493.38,107.66a4.24,4.24,0,0,1-3.35-1.23c-.68-.84-.84-2.16-.47-3.92l4-19h2.68l-4.08,19.2a2.3,2.3,0,0,0,.25,1.91,2.06,2.06,0,0,0,1.42.73Z"/><path class="cls-2" d="M496,83.79l-4,18.9a2.53,2.53,0,0,0,.3,2.11,2.17,2.17,0,0,0,1.32.78l-.39,1.84a3.86,3.86,0,0,1-3-1.13c-.63-.78-.77-2-.42-3.71l4-18.78H496m.62-.5h-3.19l-4.07,19.17q-1.16,5.46,4.27,5.46l.59-2.76q-2.2-.16-1.73-2.37l4.14-19.5Z"/><path class="cls-14" d="M509.3,107.37a4,4,0,0,1-3.28-1.14c-.63-.78-.77-2-.43-3.63l1.5-7.07c.69-3.25,2.61-4.83,5.86-4.83h4.27a4.06,4.06,0,0,1,3.29,1.14c.63.77.77,2,.43,3.59L520,100H508.83l-.61,2.86a1.94,1.94,0,0,0,.23,1.67,1.88,1.88,0,0,0,1.54.57h8.24l-.27,1.27-1.57,1ZM512.45,93a2.41,2.41,0,0,0-2.59,2.11L509.25,98h8.47l.59-2.76a1.92,1.92,0,0,0-.23-1.65,1.85,1.85,0,0,0-1.51-.56Z"/><path class="cls-2" d="M517.22,91a3.83,3.83,0,0,1,3.1,1,4,4,0,0,1,.38,3.38l-.92,4.34H508.63l-.08.4-.57,2.66a2.18,2.18,0,0,0,.28,1.88,2.11,2.11,0,0,0,1.73.66h7.93l-.19.87-1.42.92h-7a3.82,3.82,0,0,1-3.09-1c-.58-.72-.71-1.87-.38-3.42l1.5-7.07c.66-3.12,2.5-4.64,5.61-4.64h4.27m-8.28,7.27h9l.08-.4.55-2.56a2.15,2.15,0,0,0-.28-1.86,2.08,2.08,0,0,0-1.71-.65h-4.11a2.66,2.66,0,0,0-2.83,2.3l-.55,2.56-.13.6m8.28-7.77h-4.27q-5,0-6.1,5l-1.5,7.07q-1.08,5.06,4,5.06h7.17l1.72-1.12.36-1.68H510q-1.94,0-1.53-1.94l.57-2.66h11.15l1-4.73q1.07-5-4-5Zm-7.66,7.27.55-2.56a2.17,2.17,0,0,1,2.35-1.91h4.11q1.91,0,1.5,1.91l-.55,2.56Z"/><path class="cls-14" d="M535.38,107.37a4,4,0,0,1-3.28-1.14c-.63-.78-.77-2-.43-3.63l1.5-7.07c.69-3.25,2.61-4.83,5.86-4.83h6.32l1.52-7.17h2.68l-5.07,23.83ZM538.53,93a2.43,2.43,0,0,0-2.59,2.11l-1.64,7.73a1.94,1.94,0,0,0,.23,1.67,1.88,1.88,0,0,0,1.54.57h6.22L544.86,93Z"/><path class="cls-2" d="M549.24,83.79l-5,23.33h-8.9a3.82,3.82,0,0,1-3.09-1c-.58-.72-.71-1.87-.38-3.42l1.5-7.07c.66-3.12,2.5-4.64,5.61-4.64h6.52l.08-.4,1.44-6.77h2.17m-13.17,21.54h6.42l.08-.4L545,93.35l.13-.6h-6.63a2.66,2.66,0,0,0-2.83,2.3l-1.64,7.73a2.18,2.18,0,0,0,.28,1.88,2.11,2.11,0,0,0,1.73.66m13.79-22h-3.19l-1.52,7.17H539q-5,0-6.1,5l-1.5,7.07q-1.08,5.06,4,5.06h9.31l5.17-24.33Zm-13.79,21.54q-1.94,0-1.53-1.94l1.64-7.73a2.17,2.17,0,0,1,2.35-1.91h6l-2.46,11.57Z"/><path class="cls-14" d="M577.14,107.37a4.15,4.15,0,0,1-3.37-1.17c-.65-.8-.8-2.05-.44-3.72l2.61-12.3c.72-3.36,2.69-5,6-5h9l1.22,1.15-.29,1.37H581.35a2.36,2.36,0,0,0-2.51,2l-2.75,13a1.56,1.56,0,0,0,1.73,2.14h10.48l-.28,1.31-1.81,1.22Z"/><path class="cls-2" d="M590.9,85.43l1,1-.22,1H581.35a2.59,2.59,0,0,0-2.75,2.24l-2.75,13a1.81,1.81,0,0,0,2,2.45H588l-.19.91-1.66,1.12h-9A3.93,3.93,0,0,1,574,106c-.6-.74-.73-1.92-.39-3.51l2.61-12.3c.69-3.23,2.58-4.8,5.78-4.8h8.94m.2-.5H582q-5.16,0-6.27,5.2l-2.61,12.3q-1.1,5.2,4.06,5.2h9.14l2-1.32.36-1.71H577.81q-1.87,0-1.48-1.84l2.75-13A2.1,2.1,0,0,1,581.35,88h10.79l.36-1.71-1.4-1.32Z"/><path class="cls-14" d="M604.07,107.37a4,4,0,0,1-3.28-1.14c-.63-.78-.77-2-.43-3.62l1.5-7.07c.69-3.25,2.61-4.83,5.86-4.83h4.6a4.05,4.05,0,0,1,3.29,1.14c.63.77.77,2,.43,3.59l-1.5,7.07c-.7,3.27-2.61,4.87-5.86,4.87ZM607.22,93a2.41,2.41,0,0,0-2.59,2.11L603,102.83a1.94,1.94,0,0,0,.23,1.67,1.88,1.88,0,0,0,1.54.57h4.44a2.43,2.43,0,0,0,2.56-2.14l1.64-7.73a1.91,1.91,0,0,0-.23-1.65,1.85,1.85,0,0,0-1.52-.56Z"/><path class="cls-2" d="M612.32,91a3.83,3.83,0,0,1,3.1,1,4,4,0,0,1,.38,3.38l-1.5,7.07c-.67,3.14-2.51,4.67-5.62,4.67h-4.6a3.82,3.82,0,0,1-3.09-1c-.58-.72-.71-1.87-.38-3.42l1.5-7.07c.66-3.12,2.5-4.64,5.61-4.64h4.6m-7.56,14.37h4.44A2.66,2.66,0,0,0,612,103l1.64-7.73a2.15,2.15,0,0,0-.28-1.86,2.08,2.08,0,0,0-1.71-.65h-4.44a2.66,2.66,0,0,0-2.83,2.3l-1.64,7.73a2.18,2.18,0,0,0,.28,1.88,2.11,2.11,0,0,0,1.73.66m7.56-14.87h-4.6q-5,0-6.1,5l-1.5,7.07q-1.08,5.06,4,5.06h4.6q5,0,6.11-5.06l1.5-7.07q1.07-5-4-5Zm-7.56,14.37q-1.94,0-1.53-1.94l1.64-7.73a2.17,2.17,0,0,1,2.35-1.91h4.44q1.91,0,1.5,1.91l-1.64,7.73a2.17,2.17,0,0,1-2.32,1.94Z"/><path class="cls-14" d="M626,107.37l4-19c.7-3.27,2.61-4.87,5.86-4.87h3l1.09,1-.28,1.34h-4.27a2.45,2.45,0,0,0-2.6,2.14l-.58,2.74h6.08L637.83,93h-6.08l-3.05,14.37Z"/><path class="cls-2" d="M638.78,83.79l.91.8-.21,1h-4.07a2.68,2.68,0,0,0-2.84,2.34l-.52,2.43-.13.6H638l-.38,1.8h-6.08l-.08.4-3,14h-2.17l4-18.67c.67-3.14,2.51-4.67,5.62-4.67h2.87m.19-.5h-3.06q-5,0-6.11,5.06l-4.1,19.27h3.19L632,93.25H638l.59-2.8h-6.08l.52-2.43a2.19,2.19,0,0,1,2.35-1.94h4.47l.36-1.68L639,83.29Z"/><path class="cls-14" d="M646,107.37l4-19c.7-3.27,2.61-4.87,5.86-4.87h3l1.09,1-.28,1.34h-4.27a2.45,2.45,0,0,0-2.6,2.14l-.58,2.74h6.08L657.79,93h-6.08l-3.05,14.37Z"/><path class="cls-2" d="M658.74,83.79l.91.8-.21,1h-4.07a2.68,2.68,0,0,0-2.84,2.34L652,90.35l-.13.6H658l-.38,1.8h-6.08l-.08.4-3,14h-2.17l4-18.67c.67-3.14,2.51-4.67,5.62-4.67h2.87m.19-.5h-3.06q-5,0-6.11,5.06l-4.1,19.27h3.19l3.05-14.37H658l.59-2.8H652.5L653,88a2.19,2.19,0,0,1,2.35-1.94h4.47l.36-1.68-1.28-1.12Z"/><path class="cls-14" d="M670.39,107.37a4,4,0,0,1-3.28-1.14c-.63-.78-.77-2-.43-3.63l1.5-7.07c.69-3.25,2.61-4.83,5.86-4.83h4.27a4.05,4.05,0,0,1,3.29,1.14c.63.77.77,2,.43,3.59l-1,4.54H669.92l-.61,2.86a1.94,1.94,0,0,0,.23,1.67,1.88,1.88,0,0,0,1.54.57h8.24l-.27,1.27-1.57,1ZM673.55,93A2.43,2.43,0,0,0,671,95.1L670.35,98h8.47l.59-2.76a1.92,1.92,0,0,0-.23-1.65,1.85,1.85,0,0,0-1.51-.56Z"/><path class="cls-2" d="M678.32,91a3.83,3.83,0,0,1,3.1,1,4,4,0,0,1,.38,3.38l-.92,4.34H669.72l-.08.4-.57,2.66a2.18,2.18,0,0,0,.28,1.88,2.11,2.11,0,0,0,1.73.66H679l-.19.87-1.42.92h-7a3.82,3.82,0,0,1-3.09-1c-.58-.72-.71-1.87-.38-3.42l1.5-7.07c.66-3.12,2.5-4.64,5.61-4.64h4.27M670,98.22h9l.08-.4.55-2.56a2.15,2.15,0,0,0-.28-1.86,2.08,2.08,0,0,0-1.71-.65h-4.11a2.66,2.66,0,0,0-2.83,2.3l-.55,2.56-.13.6m8.28-7.77H674q-5,0-6.1,5l-1.5,7.07q-1.08,5.06,4,5.06h7.17l1.72-1.12.36-1.68h-8.55q-1.94,0-1.53-1.94l.57-2.66h11.15l1-4.73q1.07-5-4-5Zm-7.66,7.27.55-2.56a2.17,2.17,0,0,1,2.35-1.91h4.11q1.91,0,1.5,1.91l-.55,2.56Z"/><path class="cls-14" d="M691.88,107.37,695,92.6a5.52,5.52,0,0,1,4.57-1.9h3.29l1.09,1L703.7,93h-4.07a2.91,2.91,0,0,0-2.12.73l-.05.05-2.89,13.59Z"/><path class="cls-2" d="M702.79,91l.91.8-.21,1h-3.87a3.15,3.15,0,0,0-2.3.8l-.11.11,0,.15-2.83,13.32h-2.17l3.06-14.41A5.23,5.23,0,0,1,699.59,91h3.2m.19-.5h-3.39a5.71,5.71,0,0,0-4.81,2l-3.22,15.13h3.19l2.91-13.71a2.66,2.66,0,0,1,1.95-.66h4.27l.36-1.68L703,90.45Z"/><path class="cls-14" d="M716.17,107.37a4,4,0,0,1-3.28-1.14c-.63-.78-.77-2-.43-3.63l1.5-7.07c.69-3.25,2.61-4.83,5.86-4.83h6.32l1.52-7.17h2.68l-5.07,23.83ZM719.32,93a2.41,2.41,0,0,0-2.59,2.11l-1.64,7.73a1.94,1.94,0,0,0,.23,1.68,1.88,1.88,0,0,0,1.54.57h6.22L725.65,93Z"/><path class="cls-2" d="M730,83.79l-5,23.33h-8.9a3.82,3.82,0,0,1-3.09-1c-.58-.72-.71-1.87-.38-3.42l1.5-7.07c.66-3.12,2.5-4.64,5.61-4.64h6.52l.08-.4,1.44-6.77H730m-13.17,21.54h6.42l.08-.4,2.46-11.57.13-.6h-6.63a2.66,2.66,0,0,0-2.83,2.3l-1.64,7.73a2.18,2.18,0,0,0,.28,1.88,2.11,2.11,0,0,0,1.73.66m13.79-22h-3.19l-1.52,7.17h-6.12q-5,0-6.1,5l-1.5,7.07q-1.08,5.06,4,5.06h9.31l5.17-24.33Zm-13.79,21.54q-1.94,0-1.53-1.94L717,95.16a2.17,2.17,0,0,1,2.35-1.91h6l-2.46,11.57Z"/><path class="cls-14" d="M741.88,107.37a4.09,4.09,0,0,1-3.32-1.15c-.63-.77-.77-2-.43-3.58.69-3.25,2.62-4.83,5.89-4.83h5.76l.55-2.6a1.91,1.91,0,0,0-.23-1.65,1.85,1.85,0,0,0-1.52-.56h-6.73l.27-1.27,1.6-1h5.52a4.05,4.05,0,0,1,3.29,1.14c.63.77.77,2,.43,3.59l-2.54,11.94Zm1.67-7.56a2.45,2.45,0,0,0-2.6,2.14l-.19.89a1.94,1.94,0,0,0,.23,1.67,1.88,1.88,0,0,0,1.54.57h5.69l1.12-5.27Z"/><path class="cls-2" d="M749.25,91a3.83,3.83,0,0,1,3.09,1,4,4,0,0,1,.38,3.38l-2.49,11.74h-8.34a3.87,3.87,0,0,1-3.13-1.05,4,4,0,0,1-.38-3.37c.66-3.12,2.51-4.64,5.64-4.64h6l.08-.4.51-2.4a2.15,2.15,0,0,0-.28-1.86,2.08,2.08,0,0,0-1.71-.65h-6.42l.18-.87L743.8,91h5.44m-6.7,14.37h5.9l.08-.4,1-4.77.13-.6h-6.11a2.68,2.68,0,0,0-2.84,2.34l-.19.89a2.18,2.18,0,0,0,.28,1.88,2.11,2.11,0,0,0,1.73.66m6.7-14.87h-5.59l-1.75,1.12-.36,1.68h7q1.91,0,1.5,1.91l-.51,2.4H744q-5.06,0-6.13,5t4,5h8.75l2.58-12.13q1.07-5-4-5Zm-6.7,14.37q-1.94,0-1.53-1.94l.19-.89a2.19,2.19,0,0,1,2.35-1.94H749l-1,4.77Z"/><path class="cls-14" d="M784.41,107.37,787,95.21a1.91,1.91,0,0,0-.23-1.65,1.85,1.85,0,0,0-1.52-.56h-5.76l-3.05,14.37h-2.71L776.78,93h-8l-3.05,14.37h-2.68l3.54-16.67h19.3a4.05,4.05,0,0,1,3.29,1.14c.63.77.77,2,.43,3.59l-2.54,11.94Z"/><path class="cls-2" d="M785.91,91A3.83,3.83,0,0,1,789,92a4,4,0,0,1,.38,3.38l-2.49,11.74h-2.17l2.52-11.86A2.15,2.15,0,0,0,787,93.4a2.08,2.08,0,0,0-1.71-.65h-6l-.08.4-3,14H774L777,93.35l.13-.6H768.6l-.08.4-3,14h-2.17L766.82,91h19.1m0-.5h-19.5l-3.65,17.17H766L769,93.25h7.46l-3.05,14.37h3.22l3.05-14.37h5.56q1.91,0,1.5,1.91l-2.65,12.46h3.19l2.58-12.13q1.07-5-4-5Z"/><path class="cls-14" d="M800.38,107.37l-1.09-1,.28-1.34H807a2.9,2.9,0,0,0,2.42-4.12,1.6,1.6,0,0,0-1.11-.65l-3.65-.62A3.88,3.88,0,0,1,802,98.24a3.67,3.67,0,0,1-.33-2.87c.67-3.14,2.58-4.67,5.85-4.67h5.27l1.09,1L813.56,93H807a2.46,2.46,0,0,0-2.64,2.17,2.23,2.23,0,0,0,.19,1.73,1.76,1.76,0,0,0,1.2.71l3.69.62A3.71,3.71,0,0,1,812,99.62a3.9,3.9,0,0,1,.33,3c-.67,3.16-2.6,4.7-5.89,4.7Z"/><path class="cls-2" d="M812.65,91l.91.8-.21,1H807a2.72,2.72,0,0,0-2.88,2.37A2.46,2.46,0,0,0,804.3,97a2,2,0,0,0,1.37.82l3.68.62a3.48,3.48,0,0,1,2.41,1.28,3.67,3.67,0,0,1,.29,2.85c-.64,3-2.49,4.5-5.65,4.5h-5.93l-.91-.8.21-1H807a3.14,3.14,0,0,0,2.63-4.51,1.84,1.84,0,0,0-1.27-.76l-3.64-.62a3.65,3.65,0,0,1-2.51-1.33,3.44,3.44,0,0,1-.29-2.67c.64-3,2.47-4.47,5.61-4.47h5.17m.19-.5h-5.36q-5.06,0-6.1,4.87-.82,3.88,3.2,4.6l3.65.62q1.52.26,1.09,2.3a2.21,2.21,0,0,1-2.36,2h-7.6L799,106.5l1.28,1.12h6.12q5.1,0,6.14-4.9.86-4-3.1-4.74l-3.68-.62q-1.58-.3-1.19-2.14a2.23,2.23,0,0,1,2.39-2h6.81l.36-1.68-1.28-1.12Z"/></svg>