<?xml version="1.0" encoding="utf-8"?>
<!-- Generator: Adobe Illustrator 21.1.0, SVG Export Plug-In . SVG Version: 6.00 Build 0)  -->
<svg version="1.1" xmlns="http://www.w3.org/2000/svg" xmlns:xlink="http://www.w3.org/1999/xlink" x="0px" y="0px"
	 viewBox="0 0 44.1 60" style="enable-background:new 0 0 44.1 60;" xml:space="preserve">
<style type="text/css">
	.st0{fill:#76D0E8;}
	.st1{fill:#0B74B3;}
</style>
<g id="Capa_1">
	<path class="st0" d="M40,9.3L40,9.3c0,0-1.1-1.8-3.7-4c0,0,0,0,0,0C36.2,5.2,36.1,5.1,36,5c-0.2-0.2-0.5-0.4-0.7-0.6
		c-0.5-0.4-0.8-0.6-1.1-0.7C30.5,1.2,26.3,0,22.1,0C16.5,0,10.9,2.2,6.6,6.4c-4.8,4.7-7.1,11.2-6.5,17.8c0.6,6.6,4.2,12.5,9.7,16.2
		c1.2,0.8,1.9,2.1,1.9,3.5v5.2c0,1.2,0.7,2.2,1.8,2.7l0,0v1.6c0,1.6,1.3,2.9,2.9,3l0,0l0,0l0.4,1C17.5,59,19,60,20.6,60h2.7
		c1.8,0,3.4-1.1,4-2.7l0.3-0.9l0,0c1.6,0,2.9-1.4,2.9-3v-1.6l0,0c1.1-0.5,1.8-1.5,1.8-2.7v-5.4c0-1.3,0.7-2.5,1.7-3.2
		c6.2-4.1,10-11,10-18.5C44.1,17.4,42.7,13,40,9.3z M25.7,56.5c-0.2,0.4-0.8,1.7-2.4,1.7h-2.7c-1.4,0-2-1.2-2.2-1.7l0,0l-0.1-0.1
		l0.1,0h7.3L25.7,56.5z M28.8,53.4c0,0.6-0.5,1.2-1.2,1.2H16.5c-0.6,0-1.2-0.5-1.2-1.2v-1.3h13.5V53.4z M30.6,49.1
		c0,0.6-0.5,1.2-1.2,1.2H14.7c-0.6,0-1.2-0.5-1.2-1.2v-1.3h17.1V49.1z M33.2,39c-1.3,0.8-2.1,2.1-2.4,3.6l0,0.1h-2.6
		c-0.5,0-0.9,0.4-0.9,0.9s0.4,0.9,0.9,0.9h2.5V46H13.5v-1.5h10.1c0.5,0,0.9-0.4,0.9-0.9s-0.4-0.9-0.9-0.9H13.4l0-0.1
		c-0.3-1.5-1.2-2.8-2.5-3.7C5.7,35.6,2.5,30.1,1.9,24c-0.6-6,1.6-12,6-16.3c7.5-7.4,19.3-7.9,27.3-1.1c0,0,0,0,0,0
		c0.5,0.4,1.9,1.6,3.3,3.6c0.2,0.2,0.3,0.5,0.5,0.7c0,0.1,0.1,0.1,0.1,0.2c2.1,3.3,3.2,7,3.2,10.9C42.3,28.9,38.9,35.3,33.2,39z"/>
</g>
<g id="Layer_3">
	<path class="st1" d="M37.4,14.3c-0.3-1.3-1.4-2.2-2.7-2.3c-1.9-0.1-3.8,0.3-5.7,1l0,0c0,0-0.5,0.2-1.4,0.7c-0.1,0-0.1,0.1-0.2,0.1
		c0,0,0,0,0,0c-1,0.6-2.3,1.5-3.7,3c-0.1,0-0.1,0.1-0.2,0.1c-0.1,0.1-0.2,0.2-0.3,0.3c0,0-0.1,0.1-0.1,0.2c-0.1,0.1-0.1,0.1-0.2,0.2
		l0,0c-2.8,3.5-4,7.9-3.1,11.8c0.1,0.4,0.2,0.8,0.5,1.1l0,0l0,0c-0.3,0.8-0.6,1.6-0.8,2.4l0,0.2L19.5,33c-0.1-0.2-0.2-0.4-0.4-0.7
		l0,0l0,0c0.8-1.6-0.1-5.7-3.2-8.4c-2.3-2-5.3-2.9-8-2.3c-1,0.2-1.7,1-1.7,2c-0.2,2.7,1.1,5.5,3.4,7.6c2.3,2,5.4,2.9,8,2.3l0.1,0
		l0,0c0.5,1,0.8,1.7,1,2.1c0.1,0.2,0.1,0.4,0.2,0.5l0,0l0,0c-0.2,1.1-0.3,1.7-0.3,1.8c0,0.2,0.1,0.5,0.2,0.7
		c0.2,0.2,0.4,0.3,0.6,0.3c0,0,0.1,0,0.1,0c0.5,0,0.9-0.4,0.9-0.8c0-0.1,0.3-2.8,1.5-6.3l0-0.1l0.1,0c2,0.5,7.7-0.1,12-5.2
		C37.1,22.9,38.3,18.4,37.4,14.3z M17.3,29.6c-1.6-2-3.5-3.5-5.6-4.5c-0.2-0.1-0.5-0.1-0.7,0c-0.2,0.1-0.4,0.2-0.5,0.5
		c-0.1,0.2-0.1,0.5,0,0.7c0.1,0.2,0.2,0.4,0.5,0.5c2.2,1.1,4.2,2.8,5.7,5l0.1,0.1l-0.1,0c-0.2,0-0.4,0-0.6,0c-1.8,0-3.6-0.7-5.1-2
		C9,28.2,8,25.9,8.1,23.7c0-0.2,0.1-0.3,0.3-0.4c2.1-0.5,4.5,0.2,6.4,1.9c1.3,1.2,2.3,2.7,2.6,4.3l0.1,0.3L17.3,29.6z M32.7,25.3
		c-2.5,2.9-6,4.7-9.3,4.7c-0.2,0-0.4,0-0.6,0l-0.1,0l0-0.1c0.6-1.3,1.2-2.5,1.9-3.6l0,0l0,0c1.4-0.4,3-0.4,3-0.4c0,0,0,0,0,0
		c0.5,0,0.9-0.4,0.9-0.9c0-0.5-0.4-0.9-0.9-1c0,0-0.6,0-1.5,0l-0.2,0l0.1-0.1c1.8-2.3,4-4.2,6.5-5.7c0.4-0.3,0.6-0.8,0.3-1.2
		c-0.1-0.2-0.3-0.4-0.5-0.4c-0.2-0.1-0.5,0-0.7,0.1c-1.4,0.8-2.7,1.8-3.9,2.8l-0.1,0.1l0-0.1c-0.1-0.4-0.1-0.7-0.1-0.7
		c-0.1-0.5-0.6-0.8-1.1-0.6c-0.5,0.1-0.8,0.6-0.6,1.1c0,0.1,0.3,1.2,0,2.2l0,0c-0.9,1-1.8,2.2-2.5,3.3c0,0.1-0.1,0.1-0.1,0.2
		c-0.6,0.9-1.1,1.8-1.6,2.8l-0.1,0.2l0-0.2c-0.3-3.1,0.8-6.4,3-9.1c0.6-0.7,2.1-2.3,3.9-3.3c0,0,0,0,0.1,0c2-1.1,4.1-1.7,6.2-1.6
		c0.5,0,0.9,0.4,1.1,0.9C36.5,18.2,35.4,22.2,32.7,25.3z"/>
</g>
<g id="Layer_2">
</g>
</svg>
