<?xml version="1.0" encoding="utf-8"?>
<!-- Generator: Adobe Illustrator 21.1.0, SVG Export Plug-In . SVG Version: 6.00 Build 0)  -->
<svg version="1.1" xmlns="http://www.w3.org/2000/svg" xmlns:xlink="http://www.w3.org/1999/xlink" x="0px" y="0px"
	 viewBox="0 0 67.2 60" style="enable-background:new 0 0 67.2 60;" xml:space="preserve">
<style type="text/css">
	.st0{fill:#0B74B3;}
	.st1{fill:#76D0E8;}
</style>
<g id="Layer_2">
</g>
<g id="Line">
	<path class="st0" d="M43.1,34.1l0.9-1.8c0.4-0.9,0.6-1.8,0.8-2.8h0.5c0.6,0,1.2-0.1,1.7-0.4c0,0,1.3-1,1.7-1.7
		c0.2-0.3,0.3-0.7,0.4-1.1c0,0,0.2-2.2-0.7-3.1h0.8c0,0,1.3-0.2,1.3-1l0-5.6c0-0.5-0.4-0.9-0.9-0.9c-0.2,0-0.6,0-1.2,0
		c-0.1-0.5-0.2-1-0.2-1.5l-0.5-1.8c-0.2-0.6-0.4-1.1-0.6-1.6l-0.9-1.8c-0.2-0.4-0.4-0.7-0.7-1l-1.2-1.4l0.3-1.2l0-0.1
		c0.3-1.4-0.6-2.9-2-3.2c-1.2-0.3-2.5,0.3-3,1.4c-1-0.4-2.2-0.6-3.3-0.8V2.7c0-1.5-1.2-2.7-2.7-2.7c-1.5,0-2.7,1.2-2.7,2.7v0.1
		c-1.2,0.2-2.3,0.4-3.3,0.8c-0.2-0.5-0.6-0.8-1-1.1c-0.6-0.4-1.3-0.5-2-0.3c-0.7,0.2-1.3,0.6-1.7,1.2c-0.4,0.6-0.5,1.3-0.3,2l0,0.1
		l0.3,1.1l-1.1,1.5c-0.2,0.3-0.5,0.7-0.7,1L20.1,11c-0.2,0.5-0.4,1.1-0.6,1.6l-0.5,1.8c-0.1,0.5-0.2,1-0.2,1.5h0c-0.6,0-1,0-1.2,0
		c0,0,0,0,0,0c-0.5,0-0.9,0.4-0.9,0.9l0,5.6c0,0,0.1,1.2,1.7,1.2c0,0-0.4,1.3-0.2,2.9c0.1,0.4,0.2,0.7,0.4,1.1c0,0,0.7,1.2,1.7,1.7
		c0.5,0.3,1.1,0.4,1.7,0.4h0.5c0.1,0.9,0.4,1.9,0.8,2.8c0,0,0.7,1.5,0.9,1.8c0.2,0.4,0.5,0.8,0.8,1.1l1.5,1.7L26.3,37h0.1
		c0.2,0.2,0.3,0.3,0.4,0.4l0,2c-0.6,0.1-1.2,0.3-1.8,0.4c-0.4-0.2-0.8-0.3-1.2-0.3h-4.2c-1.3,0-2.4,1.1-2.4,2.4v1.6
		c-0.7,0.6-1.4,1.2-2,1.8c-3.4,3.5-5.2,8.1-5.2,13.9c0,0.5,0.4,0.9,0.9,0.9h45.2c0.5,0,0.9-0.4,0.9-0.9c0-5.7-1.7-10.4-5.2-13.9
		c-0.6-0.6-1.3-1.2-2-1.8v-1.6c0-1.3-1.1-2.4-2.4-2.4h-4.2c-0.4,0-0.8,0.1-1.2,0.3c-0.5-0.1-1.1-0.3-1.7-0.4v-2
		c0.1-0.1,0.3-0.3,0.4-0.4c0,0,1.4-1.6,1.6-1.8C42.6,34.9,42.9,34.5,43.1,34.1z M17.3,58.2h-5.4c0.2-5.3,2-9.5,5.4-12.5V58.2z
		 M49.9,45.7c3.4,3,5.2,7.2,5.4,12.5h-5.4V45.7z M45.2,27.8h-0.3l0.4-4.2c1.1,0,2.1,1,2.1,2.1C47.4,26.8,46.4,27.8,45.2,27.8z
		 M39.8,10.5l1.4-5.9c0.1-0.4,0.5-0.7,0.9-0.7c0.1,0,0.1,0,0.2,0c0.2,0.1,0.4,0.2,0.6,0.4C42.9,4.5,43,4.8,42.9,5l-1.4,5.9
		c-0.1,0.5-0.6,0.8-1.1,0.7C39.9,11.5,39.6,11,39.8,10.5z M32.7,2.7c0-0.5,0.4-0.9,0.9-0.9c0.5,0,0.9,0.4,0.9,0.9v8.7
		c0,0.5-0.4,0.9-0.9,0.9c-0.5,0-0.9-0.4-0.9-0.9V2.7z M24.4,4.3c0.1-0.2,0.3-0.3,0.6-0.4c0.1,0,0.1,0,0.2,0c0.2,0,0.3,0,0.5,0.1
		C25.8,4.2,26,4.4,26,4.6l1.4,5.9c0.1,0.2,0,0.5-0.1,0.7c-0.1,0.2-0.3,0.3-0.6,0.4c-0.2,0.1-0.5,0-0.7-0.1c-0.2-0.1-0.3-0.3-0.4-0.6
		L24.2,5C24.2,4.8,24.2,4.5,24.4,4.3z M23.3,8.8l0.6,2.5c0.2,0.7,0.6,1.3,1.2,1.7c0.6,0.4,1.3,0.5,2,0.3c0.7-0.2,1.3-0.6,1.7-1.2
		c0.4-0.6,0.5-1.3,0.3-2L28,5.3c0.9-0.3,1.8-0.6,2.9-0.7v6.7c0,1.5,1.2,2.7,2.7,2.7c1.5,0,2.7-1.2,2.7-2.7V4.6c1,0.1,2,0.4,2.9,0.7
		L38,10.1c-0.2,0.7,0,1.4,0.3,2c0.4,0.6,1,1,1.7,1.2c0.2,0,0.4,0.1,0.6,0.1c1.3,0,2.3-0.9,2.6-2.1l0.6-2.5c1.4,1.8,2.3,4.2,2.7,7
		c-6.1,0-19.8,0-25.9,0C21,13,21.9,10.7,23.3,8.8z M21.9,27.8c-1.2,0-2.1-1-2.1-2.1c0-1.2,0.9-2.1,2.1-2.1l0.4,4.2H21.9z M18.5,21.6
		L18.5,21.6l0-4c4.8,0,25.5,0,30.2,0l0,4C45.6,21.7,35.1,21.7,18.5,21.6z M19.1,41.9c0-0.3,0.3-0.6,0.6-0.6h4.2
		c0.3,0,0.6,0.3,0.6,0.6v4.8c0,1.2,0.6,2.4,1.6,3.1l5.3,3.8c0,0,0.1,0,0.1,0.1H19.1V41.9z M48.1,58.2h-29v-2.8h29V58.2z M42.7,46.7
		v-4.8c0-0.3,0.3-0.6,0.6-0.6h4.2c0.3,0,0.6,0.3,0.6,0.6v11.8H35.8c0,0,0.1,0,0.1-0.1l5.3-3.8C42.1,49.1,42.7,47.9,42.7,46.7z
		 M41,41.4c0,0.2-0.1,0.3-0.1,0.5v4.8c0,0.7-0.3,1.3-0.9,1.7l-5.3,3.8c-0.7,0.5-1.7,0.5-2.4,0l-5.3-3.8c-0.5-0.4-0.9-1-0.9-1.7v-4.8
		c0-0.2,0-0.3-0.1-0.5c0.3-0.1,0.5-0.1,0.8-0.2c0.6,2.8,3.4,4.8,6.6,4.8c3.2,0,6-2,6.6-4.8C40.5,41.3,40.8,41.4,41,41.4z M28.6,38.9
		c0.3,0.2,0.7,0.5,1,0.7c1.2,0.7,2.6,1.1,4,1.1c1.4,0,2.8-0.4,4-1.1c0.3-0.2,0.7-0.4,1.1-0.7V40c0,2.3-2.2,4.2-5,4.2
		c-2.7,0-4.9-1.8-5-4.1L28.6,38.9z M36.6,38c-1.9,1.1-4.2,1.1-6.1,0c-2.9-1.7-6.3-5.2-6.4-9.7c0-0.2-0.4-4.3-0.4-4.8
		c4.7,0,18.4,0,19.8,0c-0.1,0.6-0.4,4.7-0.4,4.8C43,32.8,39.5,36.3,36.6,38z"/>
</g>
<g id="Layer_3">
	<path class="st1" d="M24.8,35.2H6.1v-1.1h18c-0.2-0.3-0.9-1.8-0.9-1.8h-6.1l2.1-1.5c0.6-0.4,0.9-1,1.1-1.7c-1-0.5-1.7-1.7-1.7-1.7
		v1.2c0,0.3-0.1,0.6-0.4,0.7L15,31.7c-0.3,0.2-0.7,0.2-1,0l-3.2-2.3c-0.2-0.2-0.4-0.4-0.4-0.7v-2.8c0.7,1.4,2.3,2.3,4,2.3
		c1.5,0,2.8-0.6,3.7-1.7c-0.2-1.6,0.2-2.9,0.2-2.9c-1.6,0-1.7-1.2-1.7-1.2c-0.2,0.1-0.4,0.2-0.5,0.3c-1,0.6-2.3,0.6-3.3,0
		c-1.8-1-3.6-3.2-3.7-5.5c0-0.1-0.2-2.4-0.2-2.8c0.9,0,9.3,0,10.2,0l0.5-1.8c-0.2,0-1.1,0-2.3,0c-3.7,0-10.5,0-11.5,0l0-1.6
		c1,0,7.5,0,11.4,0c1.5,0,2.7,0,3,0L21,9.2c-1,0-12.7,0-13.9,0c0.3-1.9,1-3.4,2.1-4.5l0.7,2.8l0,0.1l1.7-0.4l0.1,0l-0.8-3.6
		c0.8-0.4,1.8-0.6,2.8-0.7v4.9h1.8V2.9c1.1,0.1,2,0.3,2.8,0.7l-0.8,3.6l1.7,0.4l0.7-2.9c0.9,0.9,1.5,2,1.9,3.5l1.1-1.5l-0.3-1.1
		c-0.2-0.4-0.5-0.8-0.7-1.2c-0.4-0.6-1-1.1-1.6-1.6l0.2-1l-1.7-0.4l-0.1,0.4c-1-0.4-2.1-0.7-3.3-0.7V0.3h-1.8v0.8
		c-1.2,0.1-2.3,0.3-3.3,0.7l-0.1-0.4L8.5,1.8l-0.1,0l0.2,1c-0.6,0.4-1.1,1-1.6,1.6c-1,1.3-1.6,2.9-1.9,4.9l-0.1,0
		c-0.1,0-0.2,0-0.3,0C4.4,9.2,4,9.6,4,10.1l0,3.4c0,0.2,0.1,0.5,0.3,0.6c0.2,0.2,0.4,0.3,0.6,0.3l0.2,0c-0.2,0.4-0.3,0.8-0.3,1.2
		c0,1.5,1.2,2.7,2.7,2.7c0.4,2.1,1.6,3.6,2.6,4.5v1.2c-0.2,0-0.4,0.1-0.6,0.1C9.1,24.1,8.9,24,8.6,24H6.1c-1,0-1.8,0.8-1.8,1.8v0.8
		C1.5,28.8,0,32.1,0,36.1C0,36.6,0.4,37,0.9,37h25.4l0.1-0.1L24.8,35.2z M11.9,24.3c0.8,0.4,1.7,0.7,2.6,0.7c0.9,0,1.8-0.2,2.6-0.7
		c0,0,0.1,0,0.1-0.1c0,1.2-1.2,2.1-2.6,2.1C13,26.4,11.8,25.4,11.9,24.3C11.8,24.2,11.9,24.3,11.9,24.3z M6.5,15.6
		c0-0.4,0.2-0.7,0.6-0.8l0.2,1.7C6.9,16.4,6.5,16,6.5,15.6z M6.1,25.8l2.5,0v2.9c0,0.9,0.4,1.7,1.1,2.2l2.1,1.5H6.1V25.8z M4.3,35.2
		H1.8c0.2-2.6,1-4.7,2.5-6.3V35.2z"/>
	<path class="st1" d="M62.8,26.6v-0.8c0-1-0.8-1.8-1.8-1.8h-2.5c-0.3,0-0.5,0.1-0.8,0.2c-0.2,0-0.4-0.1-0.6-0.1v-1.2
		c1-0.9,2.2-2.5,2.6-4.5c1.5,0,2.7-1.2,2.7-2.7c0-0.4-0.1-0.8-0.3-1.2l0.2,0c0.5,0,0.9-0.4,0.9-0.9l0-3.4c0-0.5-0.4-0.9-0.9-0.9
		c-0.1,0-0.2,0-0.3,0l-0.1,0c-0.3-2-0.9-3.6-1.9-4.9c-0.4-0.6-1-1.1-1.6-1.6l0.2-1L57,1.4l-0.1,0.4c-1-0.4-2.1-0.7-3.3-0.7V0.3h-1.8
		v0.8c-1.2,0.1-2.3,0.3-3.3,0.7l-0.1-0.4l-1.7,0.4l-0.1,0l0.2,1c-0.6,0.4-1.1,1-1.6,1.6c-0.3,0.4-0.5,0.8-0.7,1.2l-0.3,1.2l1.2,1.4
		c0.4-1.4,1-2.6,1.9-3.5l0.7,2.8l0,0.1l1.7-0.4l0.1,0L49,3.6c0.8-0.4,1.8-0.6,2.8-0.7v4.9h1.8V2.9c1.1,0.1,2,0.3,2.8,0.7l-0.8,3.6
		l1.7,0.4L58,4.7c1.1,1.1,1.8,2.6,2.1,4.5c-1.1,0-9,0-12.4,0c-0.8,0-1.3,0-1.5,0l0.9,1.8c0.4,0,2,0,3.9,0c4,0,9.5,0,10.4,0l0,1.6
		c-1,0-7.7,0-11.3,0c-1.2,0-2.1,0-2.5,0c0,0-0.1,0-0.1,0l0.5,1.8c0.9,0,9.3,0,10.2,0c0,0.4-0.2,2.7-0.2,2.8
		c-0.1,2.4-1.9,4.5-3.7,5.5c-1,0.6-2.3,0.6-3.3,0c-0.2-0.1-0.3-0.2-0.5-0.3c0,0.8-1.3,1-1.3,1h-0.8c0.8,0.8,0.7,3.1,0.7,3.1
		c0.8,1.1,2.2,1.7,3.7,1.7c1.7,0,3.3-0.9,4-2.3v2.8c0,0.3-0.1,0.6-0.4,0.7l-3.2,2.3c-0.3,0.2-0.7,0.2-1,0L49,29.4
		c-0.2-0.2-0.4-0.4-0.4-0.7v-1.2c-0.4,0.7-1.7,1.7-1.7,1.7c0.1,0.7,0.5,1.3,1.1,1.7l2.1,1.5H44l-0.9,1.8h18v1.1H42.3
		c-0.1,0.1-1.6,1.8-1.6,1.8h25.5c0.5,0,0.9-0.4,0.9-0.9C67.2,32.1,65.7,28.8,62.8,26.6z M60.1,14.8c0.3,0.1,0.6,0.5,0.6,0.8
		c0,0.4-0.3,0.8-0.7,0.9L60.1,14.8z M52.7,26.4c-1.5,0-2.6-1-2.6-2.1c0,0,0.1,0,0.1,0.1c0.8,0.4,1.7,0.7,2.6,0.7
		c0.9,0,1.8-0.2,2.6-0.7c0,0,0.1,0,0.1-0.1C55.4,25.4,54.2,26.4,52.7,26.4z M61.1,32.3h-5.7l2.1-1.5c0.7-0.5,1.1-1.3,1.1-2.2l0-2.9
		h2.5V32.3z M62.8,35.2V29c1.5,1.6,2.4,3.7,2.5,6.3H62.8z"/>
</g>
</svg>
