<?xml version="1.0" encoding="utf-8"?>
<!-- Generator: Adobe Illustrator 21.1.0, SVG Export Plug-In . SVG Version: 6.00 Build 0)  -->
<svg version="1.1" xmlns="http://www.w3.org/2000/svg" xmlns:xlink="http://www.w3.org/1999/xlink" x="0px" y="0px"
	 viewBox="0 0 71.9 60" style="enable-background:new 0 0 71.9 60;" xml:space="preserve">
<style type="text/css">
	.st0{fill:#76D0E8;}
	.st1{fill:#0B74B3;}
</style>
<g id="Layer_1">
	<path class="st0" d="M32.8,18.9c-1.2,0-2.3,0.5-3.2,1.3c-0.8,0.8-1.2,1.9-1.1,3L29,35.1c0.1,2.1,1.7,3.7,3.8,3.7
		c2,0,3.7-1.6,3.8-3.7l0.5-11.9c0-1.1-0.4-2.2-1.1-3C35.1,19.4,33.9,18.9,32.8,18.9z M34.7,35c-0.1,1.1-0.9,2-2,2
		c-1.1,0-1.9-0.9-2-2l-0.5-11.9c0-0.6,0.2-1.2,0.6-1.7c1-1,2.6-1.1,3.6-0.1c0,0,0.1,0.1,0.1,0.1c0.4,0.4,0.7,1,0.6,1.6L34.7,35z"/>
	<path class="st0" d="M32.8,40.3C32.8,40.3,32.8,40.3,32.8,40.3c-1,0-2,0.4-2.7,1.1S29,43,29,44c0,2.1,1.7,3.8,3.8,3.8c0,0,0,0,0,0
		c1,0,2-0.4,2.7-1.1s1.1-1.7,1.1-2.7C36.5,41.9,34.8,40.3,32.8,40.3z M32.8,46L32.8,46C32.8,46,32.8,46,32.8,46c-1.1,0-2-0.9-2-2
		c0-0.5,0.2-1,0.6-1.4c0.4-0.4,0.9-0.6,1.4-0.6c0,0,0,0,0,0c1.1,0,2,0.9,2,2C34.7,45.1,33.8,46,32.8,46z"/>
	<path class="st1" d="M38.2,58.2h-26c-3.8,0-7.1-1.9-9-5.2c-1.9-3.2-1.9-7.2,0-10.4L23.8,7c1.9-3.3,5.2-5.2,9-5.2s7.1,1.9,9,5.2
		l11.7,20.2c0.4-0.1,2-0.1,2-0.1l-12.1-21C41.1,2.2,37,0,32.7,0c-2.1,0-4.2,0.5-6.1,1.6c-1.9,1.1-3.4,2.6-4.5,4.5L1.6,41.7
		C0,44.5-0.4,47.8,0.4,51c0.8,3.1,2.9,5.8,5.7,7.4c1.9,1.1,4,1.6,6.1,1.6H40c0,0,0,0-0.1,0C38.1,60,38.2,58.2,38.2,58.2z"/>
	<path class="st1" d="M28.8,5.3C27.6,6,26.6,7,25.9,8.2L5.3,43.8c-1.1,1.8-1.3,4-0.8,6.1c0.6,2.1,1.9,3.8,3.7,4.8
		c1.2,0.7,2.6,1.1,4,1.1h26l0-1.8h-26c-1.6,0-3.2-0.6-4.4-1.8C6.7,51,6,49.4,6,47.8c0-1.1,0.3-2.1,0.8-3.1L27.4,9.1
		c1.7-2.9,5.5-4,8.4-2.3c0.9,0.5,1.7,1.3,2.3,2.3l11.2,19.4l1.7-0.7L39.7,8.2C37.5,4.4,32.6,3.1,28.8,5.3z"/>
	<path class="st0" d="M71.9,59.1v-4.7c0-1.6-1.3-2.9-2.9-2.9h-1.3V39.7c0-6.8-5.3-12.3-12.1-12.6l-0.2,0c0,0-1.6,0-2,0.1L53,27.3
		c-0.6,0.1-1.2,0.2-1.8,0.4L51,27.8l-1.7,0.7L49,28.6c-4.1,2.2-6.6,6.5-6.6,11.1v11.8h-1.3c-1.4,0-2.5,0.9-2.8,2.3L38.2,54l0,1.8
		v2.4c0,0-0.1,1.8,1.7,1.8c0,0,0,0,0.1,0H71C71.5,60,71.9,59.6,71.9,59.1z M44.2,39.7c0-6,4.9-10.8,10.8-10.8c0,0,0,0,0,0
		c6,0,10.8,4.9,10.8,10.8v11.8h-7.1v-8.9c0-1-0.4-1.9-1.1-2.6c-0.7-0.7-1.6-1.1-2.6-1.1h0c-2.1,0-3.7,1.7-3.7,3.7v8.9h-7.1V39.7z
		 M57,42.6v8.9h-3.8v-8.9c0-0.5,0.2-1,0.6-1.3c0.4-0.4,0.8-0.6,1.3-0.6h0C56.1,40.7,57,41.5,57,42.6z M70.1,58.2H40v-3.8
		c0-0.6,0.5-1.1,1.1-1.1H69c0.6,0,1.1,0.5,1.1,1.1V58.2z"/>
</g>
<g id="Layer_2">
</g>
</svg>
