<?xml version="1.0" encoding="utf-8"?>
<!-- Generator: Adobe Illustrator 21.1.0, SVG Export Plug-In . SVG Version: 6.00 Build 0)  -->
<svg version="1.1" xmlns="http://www.w3.org/2000/svg" xmlns:xlink="http://www.w3.org/1999/xlink" x="0px" y="0px"
	 viewBox="0 0 64.3 60" style="enable-background:new 0 0 64.3 60;" xml:space="preserve">
<style type="text/css">
	.st0{fill:#76D0E8;}
	.st1{fill:#0B74B3;}
</style>
<g id="Layer_2">
</g>
<g id="Layer_1">
	<g>
		<path class="st0" d="M12.9,23.7c0.5,0,0.9-0.4,0.9-0.9S13.4,22,12.9,22H0.9C0.4,22,0,22.4,0,22.8s0.4,0.9,0.9,0.9H12.9z"/>
		<path class="st0" d="M13.6,46.9c0-0.5-0.4-0.9-0.9-0.9H6.2c-0.5,0-0.9,0.4-0.9,0.9s0.4,0.9,0.9,0.9h6.5
			C13.2,47.7,13.6,47.3,13.6,46.9z"/>
		<path class="st0" d="M10.5,34.1c0-0.5-0.4-0.9-0.9-0.9H1.2c-0.5,0-0.9,0.4-0.9,0.9S0.7,35,1.2,35h8.5C10.1,35,10.5,34.6,10.5,34.1
			z"/>
		<path class="st1" d="M44.9,31.6C44.9,31.6,44.9,31.6,44.9,31.6h-2.7l3.1-4.9c0.2-0.3,0.2-0.6,0-0.9c-0.2-0.3-0.4-0.5-0.8-0.5
			l-5.3-0.1c-0.3,0-0.6,0.2-0.8,0.5l-4.8,9.6c-0.1,0.3-0.1,0.6,0,0.9c0.2,0.3,0.4,0.4,0.8,0.4h2.4l-3.1,7.6c-0.2,0.4,0,0.9,0.4,1.1
			c0.1,0.1,0.3,0.1,0.5,0.1c0.3,0,0.5-0.1,0.7-0.3l10.3-12.1c0.2-0.3,0.3-0.6,0.1-0.9C45.6,31.8,45.3,31.6,44.9,31.6z M38.9,35.3
			c-0.2-0.2-0.4-0.4-0.7-0.4h-2.3l3.9-7.8l3.1,0L39.8,32c-0.2,0.3-0.2,0.6,0,0.9c0.2,0.3,0.5,0.5,0.8,0.5H43l-5.5,6.4l1.5-3.7
			C39.1,35.8,39.1,35.5,38.9,35.3z"/>
		<path class="st1" d="M39.7,16.4c-10.5,0-19,8.5-19,19c0,10.5,8.5,19,19,19s19-8.5,19-19C58.7,24.9,50.2,16.4,39.7,16.4z
			 M52.8,35.4c0,0.5,0.4,0.9,0.9,0.9h3.2c-0.2,3.9-1.8,7.7-4.4,10.7l-2.3-2.3c-0.2-0.2-0.4-0.3-0.6-0.3c-0.2,0-0.5,0.1-0.6,0.3
			c-0.3,0.3-0.3,0.9,0,1.3l2.3,2.3c-2.9,2.7-6.7,4.2-10.7,4.4v-3.2c0-0.5-0.4-0.9-0.9-0.9c-0.5,0-0.9,0.4-0.9,0.9v3.2
			c-3.9-0.2-7.7-1.8-10.7-4.4l2.3-2.3c0.3-0.3,0.3-0.9,0-1.3c-0.3-0.3-0.9-0.3-1.3,0l-2.3,2.3c-2.7-2.9-4.2-6.7-4.4-10.7h3.2
			c0.5,0,0.9-0.4,0.9-0.9s-0.4-0.9-0.9-0.9h-3.2c0.2-3.9,1.8-7.7,4.4-10.7l2.3,2.3c0.3,0.3,0.9,0.3,1.3,0c0.3-0.3,0.3-0.9,0-1.3
			l-2.3-2.3c2.9-2.7,6.7-4.2,10.7-4.4v3.2c0,0.5,0.4,0.9,0.9,0.9c0.5,0,0.9-0.4,0.9-0.9v-3.2c3.9,0.2,7.7,1.8,10.7,4.4l-2.3,2.3
			c-0.3,0.3-0.3,0.9,0,1.3c0.3,0.3,0.9,0.3,1.3,0l2.3-2.3c2.7,2.9,4.2,6.7,4.4,10.7h-3.2C53.2,34.5,52.8,34.9,52.8,35.4z"/>
		<path class="st0" d="M58.3,19.4c-3.8-4.4-9-7.3-14.7-8.2V8.3h0.4c1.4,0,2.5-1.1,2.5-2.5V2.5c0-1.4-1.1-2.5-2.5-2.5h-8.8
			c-1.4,0-2.5,1.1-2.5,2.5v3.4c0,1.4,1.1,2.5,2.5,2.5h0.4v2.8c-3.7,0.6-7.3,2.1-10.3,4.3l-2-2l0.3-0.3c0.5-0.5,0.7-1.1,0.7-1.7
			c0-0.7-0.3-1.3-0.7-1.7l-2.4-2.4c-0.5-0.5-1.1-0.7-1.7-0.7c-0.7,0-1.3,0.3-1.7,0.7l-6.2,6.2c-0.5,0.5-0.7,1.1-0.7,1.7
			c0,0.7,0.3,1.3,0.7,1.7l2.4,2.4c0.5,0.5,1.1,0.7,1.7,0.7c0.7,0,1.3-0.3,1.7-0.7l0.3-0.3l2,2c-1.3,1.8-2.3,3.7-3.1,5.8h-6.2
			c-0.5,0-0.9,0.4-0.9,0.9s0.4,0.9,0.9,0.9H16c-0.6,2.2-1,4.5-1,6.8c0,1.4,0.1,2.8,0.4,4.2H5.9C5.4,39.6,5,40,5,40.5
			s0.4,0.9,0.9,0.9h9.9c1,4.1,3.1,7.9,6.1,11h-8c-0.5,0-0.9,0.4-0.9,0.9c0,0.5,0.4,0.9,0.9,0.9h9.6c0.1,0,0.1,0,0.2,0
			c4.4,3.8,10.1,5.9,16,5.9c13.6,0,24.6-11,24.6-24.6C64.3,29.5,62.2,23.8,58.3,19.4z M62.5,35.4c0,6.1-2.4,11.8-6.7,16.1
			c-4.3,4.3-10,6.7-16.1,6.7c0,0,0,0,0,0c-12.6,0-22.8-10.2-22.8-22.8s10.2-22.8,22.8-22.8S62.5,22.8,62.5,35.4z M41.9,8.3v2.6
			c-0.7-0.1-1.5-0.1-2.2-0.1c-0.7,0-1.5,0-2.2,0.1V8.3H41.9z M44.8,5.9c0,0.4-0.3,0.7-0.7,0.7l-8.8,0c-0.4,0-0.7-0.3-0.7-0.7V2.5
			c0-0.4,0.3-0.7,0.7-0.7h8.8c0.4,0,0.7,0.3,0.7,0.7V5.9z M19,17.8l3.1-3.1l1.8,1.8c-1.1,0.9-2.2,2-3.1,3.1L19,17.8z M15.2,18.1
			l-2.4-2.4c-0.3-0.3-0.3-0.7,0-1L19,8.5c0.1-0.1,0.3-0.2,0.5-0.2c0.2,0,0.4,0.1,0.5,0.2l2.4,2.4c0.1,0.1,0.2,0.3,0.2,0.5
			c0,0.2-0.1,0.4-0.2,0.5l-6.2,6.2C15.9,18.4,15.4,18.4,15.2,18.1z"/>
	</g>
</g>
</svg>
