<?xml version="1.0" encoding="utf-8"?>
<!-- Generator: Adobe Illustrator 21.1.0, SVG Export Plug-In . SVG Version: 6.00 Build 0)  -->
<svg version="1.1" xmlns="http://www.w3.org/2000/svg" xmlns:xlink="http://www.w3.org/1999/xlink" x="0px" y="0px"
	 viewBox="0 0 88.7 60" style="enable-background:new 0 0 88.7 60;" xml:space="preserve">
<style type="text/css">
	.st0{fill:#0B74B3;}
	.st1{fill:none;}
	.st2{fill:#76D0E8;}
</style>
<g id="Layer_1">
	<path class="st0" d="M82.6,0.5c-0.6,0.3-1.1,0.8-1.5,1.4l-3,4.6c-0.5,0.8-1.3,1.4-2.1,1.7c-0.1,0-0.5,0.1-0.8,0.2
		c-0.3,0.1-0.5,0.1-0.7,0.2c-1.1,0.3-2,1-2.8,1.8c-0.9,1.1-1.4,2.4-1.4,3.8v4.2c0,0.7-0.3,1.4-0.8,1.9c-0.5,0.5-1.2,0.8-1.9,0.9
		c0,0-0.3,0-0.4,0C66,20.9,65,19.7,65,18.3v-1.7c0-1.2-0.4-2.2-1.2-3.1c-0.4-0.4-0.8-0.7-1.4-1c-0.5-0.2-1-0.4-1.6-0.4l-0.3,0
		c-0.6,0-1.1,0.1-1.6,0.4c-0.6,0.3-1.2,0.9-1.7,1.6c-0.5,0.7-0.8,1.5-1,2.1c-0.1,0.3-1.6,2.6-2.1,3.2c-0.5,0.7-1.2,1.3-1.5,1.5
		c-0.4,0.3-1.2,0.6-1.9,0.6c0,0,0,0,0,0c-0.4,0-0.7-0.1-1.1-0.3c-0.3-0.1-0.6-0.4-1-1c-0.2-0.4-0.3-0.7-0.3-1.2c0-1.3,1-3.3,1.6-4.3
		c0.3-0.5,0.6-1.1,0.8-1.7c0.3-0.7,0.4-1.3,0.4-1.9c0-0.5-0.1-1-0.3-1.4c-0.2-0.5-0.6-1-1.1-1.3C49,7.9,48,7.6,47.1,7.6
		c-0.6,0-1.2,0.1-1.8,0.4c-0.6,0.2-1.1,0.6-1.6,1l-2.3,2.3V6.5c0-0.7-0.2-1.3-0.7-1.7c-0.4-0.5-1-0.8-1.7-0.8
		c-8.4-0.8-24.4-2.2-25-2.2c-0.8,0-1.6,0.1-2.4,0.4C11,2.3,10.2,2.7,9.6,3.2c-1.4,1-2.4,2.3-2.9,3.9C5.8,9.8,5,12.2,4.1,14.4
		c-1.1,2.8-2.1,5.1-3,6.7C0.4,22.4,0,23.9,0,25.3c0,1.3,0.3,2.6,0.9,3.8c0.6,1.2,1.4,2.2,2.4,3l3.3,2.7c1.3,1,2.1,2.5,2.2,4.2
		c0.1,1.3,0.5,2.6,1.3,3.7c0.7,1.1,1.8,2,3,2.6c2.5,1.2,5,3,7.5,5.3c0.7,0.7,1.6,1.1,2.5,1.2c1.7,0.3,3.4-0.3,4.5-1.5l1.8-1.9l0.9,0
		l0.3,0.4l2.7,4c0.9,1.3,2.2,2.1,3.8,2.4l0.3,0l0.2,0.2c1.2,1.3,3.4,1.7,5,0.9c0.6-0.3,1.1-0.7,1.6-1.3l0.9-1.2
		c0.6-0.8,1.7-1.5,3.1-2.1c0.9-0.4,4.9-1.7,7.2-1.9c0.1,0,0.1,0,0.2,0c0.5,0,1.2,0.1,1.7,0.4c0.6,0.3,1,0.7,1.3,1.3
		c1.3,2.5,2.9,4.4,4.7,5.9c0.9,0.7,1.8,1.3,2.7,1.8c0.9,0.5,1.9,0.7,2.9,0.9c0.2,0,0.3,0,0.5,0c0.6,0,1.3-0.1,2.1-0.5
		c0.3-0.2,0.6-0.5,0.9-0.9c0.2-0.3,0.3-0.7,0.4-1.1c0-0.1,0.1-0.5,0.1-0.7c0-0.9-0.4-1.9-1.1-2.5l-2.5-2.5c-1.2-1.2-1.8-2.7-1.8-4.4
		c0-1.3,0.4-2.6,1.2-3.6l3.2-4.5c0.7-1,1.4-2,1.9-3.1c0,0,0-0.1,0.1-0.1l0.1-0.2c1.9-3.6,14.1-26.8,14.2-27L88,8.8
		c0.5-0.7,0.7-1.5,0.7-2.3V4.1c0-1.1-0.4-2.1-1.2-2.9C86.2-0.1,84.2-0.4,82.6,0.5z M39.8,5.6v7.7c0,0.3,0.2,0.6,0.5,0.8
		c0.3,0.1,0.7,0.1,0.9-0.2l3.7-3.7c0.6-0.6,1.3-0.9,2.2-0.9c0.6,0,1.1,0.2,1.6,0.5c0.8,0.5,0.8,1.6,0.8,1.9c0,0.3-0.1,0.6-0.3,0.9
		c-0.2,0.4-0.4,0.9-0.8,1.5c-1,1.9-1.7,3.5-1.8,5.1c0,0.7,0.2,1.5,0.6,2.1c0.1,0.1,0.2,0.2,0.3,0.3l0.5,0.6l-3.9,4.2l-12.4-8.7
		c-0.4-0.3-0.9-0.2-1.1,0.2l-7.5,10.3l-7.5-4.4l9.7-19.4L39.8,5.6z M43.2,27.8l-5.1,8.9L24.6,29l6.9-9.5L43.2,27.8z M4.7,17.4
		c0.3-0.7,2.7-7,3.6-9.8c0.8-2.6,3.2-4.3,5.9-4.3c0.1,0,0.2,0,7.9,0.7l1.4,0.1L14.2,23l-9.8-4.8L4.7,17.4z M15.7,44.8
		c-0.7-0.4-1.3-0.8-2-1.1l0,0c-1.9-0.9-3.2-2.8-3.3-4.9c-0.1-1-0.4-2-0.8-3c-0.5-0.9-1.1-1.7-2-2.4l-3.3-2.7
		c-1.7-1.3-2.6-3.3-2.6-5.5c0-1.2,0.3-2.4,0.9-3.4C2.8,21.5,3,21,3.3,20.5l0.4-0.9l18.7,9.9l-5.7,15.8L15.7,44.8z M48.4,49.8
		c-0.3,0.1-0.7,0.2-1,0.4c-0.8,0.3-1.4,0.7-2,1.1c-0.7,0.5-1.3,1-1.7,1.6l-0.9,1.2c-0.5,0.7-1.3,1-2.1,1c-0.9,0-1.7-0.4-2.2-1.2
		c-0.2-0.2-0.4-0.4-0.7-0.4c-1.3,0-2.5-0.6-3.2-1.7l-2.7-4c-0.2-0.4-0.6-0.7-1-0.9c-1-0.5-2.4-0.3-3.1,0.5l-1.5,1.6
		c-0.8,0.8-1.9,1.2-3,1c-0.6-0.1-1.2-0.4-1.7-0.8c-1-0.9-2-1.7-3-2.5l-0.6-0.4l5.7-15.9l14.2,8c0.1,0.1,0.2,0.1,0.3,0.1
		c0.2,0,5.7,0,9.3,0l0.9,0l0.5,11L48.4,49.8z M41.5,36.9l-1.7,0l5.2-9l4.5-4.9l0.5,0.1c0.1,0,0.5,0,0.8,0c1,0,2-0.3,2.8-0.9
		c0.4-0.3,0.8-0.6,1.2-1.1c0.6-0.7,1.2-1.4,1.8-2.2c0.5-0.7,0.9-1.4,1.2-2.2c0.3-0.8,0.7-1.6,1.1-2.1c0.6-0.8,1.6-0.9,2.3-0.7
		c0.5,0.1,0.9,0.4,1.3,0.8c0.5,0.5,0.8,1.2,0.8,1.9v1.7c0,1.2,0.5,2.2,1.3,3.1l0.4,0.4l-5.4,15.6l-0.7,0c-0.1,0-7.2-0.4-9.5-0.5
		C47.4,36.9,41.5,36.9,41.5,36.9z M67.1,42.8c-0.5,0.7-0.9,1.4-1.1,2.2c-0.2,0.8-0.4,1.6-0.4,2.4c0,1,0.2,2,0.6,3
		c0.4,1,1,1.9,1.7,2.6l2.5,2.4c0.9,0.8,0.6,1.9,0.4,2.3c-0.1,0.2-0.6,0.7-1.6,0.7c-0.1,0-0.2,0-0.3,0c-1.6-0.2-3.2-1-4.7-2.3
		c-1.6-1.3-3.1-3.2-4.3-5.5c-0.5-0.9-1.2-1.6-2-2c-0.7-0.4-1.5-0.5-2.5-0.5c-1.3,0-2.5,0.3-3.5,0.6L50.7,49l-0.5-10.4l19.2,0.9
		L67.1,42.8z M87,6.5c0,0.5-0.1,0.9-0.4,1.4c-3.3,6.3-14.3,27.2-14.5,27.6c0,0-0.1,0.1-0.1,0.2l-0.1,0.1c-0.3,0.6-0.7,1.2-1.1,1.8
		l-0.3,0.4l-9.3-0.4l5.2-14.9l0.7,0.1c0.1,0,0.6,0,0.6,0c0.6,0,1.1-0.2,1.7-0.4c0.5-0.2,1-0.6,1.3-1c0.8-0.8,1.2-1.9,1.2-3.1v-4.2
		c0-2.1,1.5-3.8,3.5-4.2c1.6-0.3,3.1-1.2,4-2.6l2.9-4.6C83,2,83.8,1.6,84.6,1.6c1.3,0,2.4,1.1,2.4,2.4V6.5z"/>
</g>
<g id="Layer_2">
</g>
<g id="Layer_3">
	<g>
		<circle class="st1" cx="28.2" cy="10.8" r="2.2"/>
		<path class="st2" d="M28.2,6.9c-2.1,0-3.9,1.7-3.9,3.9c0,1.8,1.3,3.4,3,3.8v-0.4c0-0.5,0.4-0.8,0.9-0.8s0.9,0.4,0.9,0.8v0.4
			c1.7-0.4,3-1.9,3-3.8C32,8.7,30.3,6.9,28.2,6.9z M28.2,13C27,13,26,12,26,10.8s1-2.2,2.2-2.2s2.2,1,2.2,2.2S29.4,13,28.2,13z"/>
		<path class="st2" d="M28.2,13.3c-0.5,0-0.9,0.4-0.9,0.8v0.4v2.3c0,0.5,0.4,0.8,0.9,0.8s0.9-0.4,0.9-0.8v-2.3v-0.4
			C29,13.7,28.6,13.3,28.2,13.3z"/>
	</g>
	<g>
		<circle class="st1" cx="54.2" cy="28.5" r="2.2"/>
		<path class="st2" d="M54.2,24.6c-2.1,0-3.9,1.7-3.9,3.9c0,1.8,1.3,3.4,3,3.8v-0.4c0-0.5,0.4-0.8,0.9-0.8s0.9,0.4,0.9,0.8v0.4
			c1.7-0.4,3-1.9,3-3.8C58,26.3,56.3,24.6,54.2,24.6z M54.2,30.6c-1.2,0-2.2-1-2.2-2.2s1-2.2,2.2-2.2s2.2,1,2.2,2.2
			S55.4,30.6,54.2,30.6z"/>
		<path class="st2" d="M54.2,31c-0.5,0-0.9,0.4-0.9,0.8v0.4v2.3c0,0.5,0.4,0.8,0.9,0.8S55,35,55,34.5v-2.3v-0.4
			C55,31.3,54.6,31,54.2,31z"/>
	</g>
	<g>
		<circle class="st1" cx="26" cy="38.9" r="2.2"/>
		<path class="st2" d="M26,35c-2.1,0-3.9,1.7-3.9,3.9c0,1.8,1.3,3.4,3,3.8v-0.4c0-0.5,0.4-0.8,0.9-0.8s0.9,0.4,0.9,0.8v0.4
			c1.7-0.4,3-1.9,3-3.8C29.9,36.8,28.1,35,26,35z M26,41c-1.2,0-2.2-1-2.2-2.2s1-2.2,2.2-2.2s2.2,1,2.2,2.2S27.2,41,26,41z"/>
		<path class="st2" d="M26,41.4c-0.5,0-0.9,0.4-0.9,0.8v0.4V45c0,0.5,0.4,0.8,0.9,0.8s0.9-0.4,0.9-0.8v-2.3v-0.4
			C26.9,41.8,26.5,41.4,26,41.4z"/>
	</g>
</g>
</svg>
