<?xml version="1.0" encoding="utf-8"?>
<!-- Generator: Adobe Illustrator 21.1.0, SVG Export Plug-In . SVG Version: 6.00 Build 0)  -->
<svg version="1.1" xmlns="http://www.w3.org/2000/svg" xmlns:xlink="http://www.w3.org/1999/xlink" x="0px" y="0px"
	 viewBox="0 0 58.9 60" style="enable-background:new 0 0 58.9 60;" xml:space="preserve">
<style type="text/css">
	.st0{fill:#76D0E8;}
	.st1{fill:#0B74B3;}
</style>
<g id="Layer_1">
	<path class="st0" d="M12.9,12.1c-0.5,0-0.9,0.4-0.9,0.9c0,1.2-1,2.2-2.2,2.2s-2.2-1-2.2-2.2s1-2.2,2.2-2.2c0.5,0,0.9-0.4,0.9-0.9
		c0-0.5-0.4-0.9-0.9-0.9C7.8,9,6,10.8,6,12.9s1.7,3.9,3.9,3.9s3.9-1.7,3.9-3.9C13.8,12.4,13.4,12.1,12.9,12.1z"/>
	<path class="st0" d="M12.9,23.1c-0.5,0-0.9,0.4-0.9,0.9c0,1.2-1,2.2-2.2,2.2s-2.2-1-2.2-2.2c0-1.2,1-2.2,2.2-2.2
		c0.5,0,0.9-0.4,0.9-0.9c0-0.5-0.4-0.9-0.9-0.9C7.8,20.1,6,21.8,6,24s1.7,3.9,3.9,3.9s3.9-1.7,3.9-3.9
		C13.8,23.5,13.4,23.1,12.9,23.1z"/>
	<path class="st0" d="M34,25.1h-17c-0.5,0-0.9,0.4-0.9,0.9c0,0.5,0.4,0.9,0.9,0.9h17c0.5,0,0.9-0.4,0.9-0.9
		C34.8,25.5,34.4,25.1,34,25.1z"/>
	<path class="st0" d="M34,21.1h-17c-0.5,0-0.9,0.4-0.9,0.9c0,0.5,0.4,0.9,0.9,0.9h17c0.5,0,0.9-0.4,0.9-0.9
		C34.8,21.5,34.4,21.1,34,21.1z"/>
	<path class="st0" d="M32,36.2h-15c-0.5,0-0.9,0.4-0.9,0.9s0.4,0.9,0.9,0.9h15c0.5,0,0.9-0.4,0.9-0.9S32.4,36.2,32,36.2z"/>
	<path class="st0" d="M34,32.2h-17c-0.5,0-0.9,0.4-0.9,0.9s0.4,0.9,0.9,0.9h17c0.5,0,0.9-0.4,0.9-0.9S34.4,32.2,34,32.2z"/>
	<path class="st0" d="M43.9,14.9c0-0.5-0.4-0.9-0.9-0.9H16.9c-0.5,0-0.9,0.4-0.9,0.9s0.4,0.9,0.9,0.9H43
		C43.5,15.8,43.9,15.4,43.9,14.9z"/>
	<path class="st0" d="M16.9,11.8H39c0.5,0,0.9-0.4,0.9-0.9s-0.4-0.9-0.9-0.9H16.9c-0.5,0-0.9,0.4-0.9,0.9S16.5,11.8,16.9,11.8z"/>
	<path class="st0" d="M10.7,32c0-0.5-0.4-0.9-0.9-0.9C7.8,31.2,6,32.9,6,35c0,2.1,1.7,3.9,3.9,3.9s3.9-1.7,3.9-3.9
		c0-0.5-0.4-0.9-0.9-0.9s-0.9,0.4-0.9,0.9c0,1.2-1,2.2-2.2,2.2s-2.2-1-2.2-2.2s1-2.2,2.2-2.2C10.4,32.9,10.7,32.5,10.7,32z"/>
	<path class="st0" d="M29.9,46.2H2.9c-0.6,0-1.2-0.5-1.2-1.2V2.9c0-0.6,0.5-1.2,1.2-1.2H47c0.6,0,1.2,0.5,1.2,1.2V34
		c0,0.5,0.4,0.9,0.9,0.9s0.9-0.4,0.9-0.9V2.9C49.9,1.3,48.6,0,47,0H2.9C1.3,0,0,1.3,0,2.9v42.2c0,1.6,1.3,2.9,2.9,2.9h27.1
		c0.5,0,0.9-0.4,0.9-0.9C30.8,46.6,30.4,46.2,29.9,46.2z"/>
	<path class="st1" d="M55.9,38.2c-0.9-0.1-1.7,0.2-2.4,0.7l-0.1,0.1l-0.1-0.1c-0.6-0.9-1.5-1.5-2.5-1.6c-0.9-0.1-1.7,0.2-2.4,0.7
		l-0.1,0.1l-0.1-0.1c-0.6-0.9-1.5-1.5-2.5-1.6c-0.6-0.1-1.3,0.1-1.9,0.4l-0.1,0.1V24.5c0-0.9-0.4-1.9-1.1-2.5
		c-0.6-0.6-1.4-0.9-2.3-0.9c-0.1,0-0.2,0-0.3,0c-1.7,0.2-3,1.7-3,3.5v12.1l-2.8,2.8c-1.4,1.5-2,3.5-1.6,5.5l2.1,8.9
		c0.8,3.6,4,6.1,7.7,6.1h8.5c4.3,0,7.9-3.5,7.9-7.9V41.7C58.9,39.9,57.6,38.4,55.9,38.2z M57.2,52.2c0,3.4-2.8,6.1-6.2,6.1h-8.5
		c-2.9,0-5.4-2-6-4.8l-2.1-8.9c-0.3-1.4,0.1-2.9,1.1-3.9l1.6-1.6v3.5c0,0.5,0.4,0.9,0.9,0.9c0.5,0,0.9-0.4,0.9-0.9V24.6
		c0-0.9,0.7-1.7,1.5-1.8c0.5,0,0.9,0.1,1.3,0.4c0.3,0.3,0.5,0.8,0.5,1.2v16.6c0,0.5,0.4,0.9,0.9,0.9s0.9-0.4,0.9-0.9v-1.5
		c0-0.5,0.2-0.9,0.5-1.2c0.4-0.3,0.8-0.5,1.3-0.4c0.8,0.1,1.5,0.9,1.5,1.8v2.4c0,0.5,0.4,0.9,0.9,0.9s0.9-0.4,0.9-0.9v-1.5
		c0-0.5,0.2-0.9,0.5-1.2c0.4-0.3,0.8-0.5,1.3-0.4c0.8,0.1,1.5,0.9,1.5,1.8v2.4c0,0.5,0.4,0.9,0.9,0.9s0.9-0.4,0.9-0.9v-1.5
		c0-0.5,0.2-0.9,0.5-1.2c0.4-0.3,0.8-0.5,1.3-0.4c0.8,0.1,1.5,0.9,1.5,1.8L57.2,52.2z"/>
</g>
<g id="Layer_2">
</g>
</svg>
