<?xml version="1.0" encoding="utf-8"?>
<!-- Generator: Adobe Illustrator 21.1.0, SVG Export Plug-In . SVG Version: 6.00 Build 0)  -->
<svg version="1.1" xmlns="http://www.w3.org/2000/svg" xmlns:xlink="http://www.w3.org/1999/xlink" x="0px" y="0px"
	 viewBox="0 0 60 60" style="enable-background:new 0 0 60 60;" xml:space="preserve">
<style type="text/css">
	.st0{fill:#76D0E8;}
	.st1{fill:#0B74B3;}
</style>
<g id="Layer_2">
</g>
<g id="Layer_1">
	<g>
		<path class="st0" d="M30,0C13.5,0,0,13.5,0,30c0,4.8,1.2,9.6,3.4,13.8c0,0-0.1,0.1-0.1,0.1c-3.3,3.3-3.3,8.8,0,12.1
			c3.2,3.2,14.6,3.9,15.1,4l0.1,0c0.2,0,0.5-0.1,0.6-0.3c0.2-0.2,0.3-0.4,0.3-0.7c0-0.5-0.8-11.9-4-15.1c-2.8-2.8-7.2-3.3-10.6-1.2
			c-2-3.9-3-8.3-3-12.7C1.8,14.4,14.4,1.8,30,1.8c15.6,0,28.2,12.7,28.2,28.2c0,15.6-12.7,28.2-28.2,28.2c-0.5,0-0.9,0.4-0.9,0.9
			S29.5,60,30,60c16.5,0,30-13.5,30-30C60,13.5,46.5,0,30,0z M7.2,53.6c0.5,0,0.9-0.4,0.9-0.9v-2.3c1.8,1.9,3.8,3.6,6,5
			c0.2,0.1,0.4,0.2,0.7,0.1c0.2-0.1,0.4-0.2,0.6-0.4c0.1-0.2,0.2-0.4,0.1-0.7c-0.1-0.2-0.2-0.4-0.4-0.6c-2.3-1.4-4.3-3.2-6.1-5.2H12
			c0.5,0,0.9-0.4,0.9-0.9s-0.4-0.9-0.9-0.9H7.4c-0.6-0.8-1.2-1.7-1.8-2.6c1.1-0.7,2.4-1.1,3.7-1.1c1.8,0,3.5,0.7,4.8,2
			c2.3,2.3,3.2,11.3,3.4,13c-4.9-0.4-11.1-1.5-13-3.4c-2.5-2.5-2.6-6.7-0.2-9.3c0.6,1,1.3,2,2,2.9v4.4C6.3,53.2,6.7,53.6,7.2,53.6z"
			/>
		<path class="st1" d="M42.7,38c0.1,0.1,0.3,0.1,0.4,0.1c0.3,0,0.6-0.2,0.8-0.5c1.3-2.3,2-5,2-7.7c0-8.8-7.1-15.9-15.9-15.9
			c-3.2,0-6.5,1-9.2,2.9l0-2c0-0.5-0.4-0.9-0.9-0.9c-0.2,0-0.5,0.1-0.6,0.3c-0.2,0.2-0.3,0.4-0.3,0.6l0,3.8c0,0.5,0.4,0.9,0.9,0.9
			l3.8,0c0.5,0,0.9-0.4,0.9-0.9c0-0.2-0.1-0.5-0.3-0.6C24.3,18.1,24,18,23.8,18l-1.1,0c2.2-1.4,4.8-2.1,7.3-2.1
			c7.8,0,14.1,6.3,14.1,14.1c0,2.4-0.6,4.7-1.8,6.8C42.1,37.3,42.3,37.8,42.7,38z"/>
		<path class="st1" d="M17.3,21.9c-0.4-0.2-1-0.1-1.2,0.3c-1.3,2.3-2,5-2,7.7c0,8.8,7.1,15.9,15.9,15.9c3.3,0,6.4-1,9.1-2.9l0,2
			c0,0.5,0.4,0.9,0.9,0.9c0.5,0,0.9-0.4,0.9-0.9l0-3.9c0-0.5-0.4-0.9-0.9-0.9h-3.8c-0.5,0-0.9,0.4-0.9,0.9c0,0.5,0.4,0.9,0.9,0.9
			h1.2c-2.2,1.4-4.8,2.1-7.3,2.1c-7.8,0-14.1-6.3-14.1-14.1c0-2.4,0.6-4.8,1.8-6.8C17.9,22.7,17.7,22.2,17.3,21.9z"/>
	</g>
</g>
</svg>
