<?xml version="1.0" encoding="utf-8"?>
<!-- Generator: Adobe Illustrator 21.1.0, SVG Export Plug-In . SVG Version: 6.00 Build 0)  -->
<svg version="1.1" id="Capa_1" xmlns="http://www.w3.org/2000/svg" xmlns:xlink="http://www.w3.org/1999/xlink" x="0px" y="0px"
	 viewBox="0 0 50.2 60" style="enable-background:new 0 0 50.2 60;" xml:space="preserve">
<style type="text/css">
	.st0{fill:#0B74B3;}
	.st1{fill:#76D0E8;}
</style>
<path class="st0" d="M43.6,12.1c-3.4-0.2-6.5-2.6-7.6-5.8c-0.2-0.6-0.8-1-1.4-1h-19c-0.6,0-1.2,0.4-1.4,1c-1.1,3.3-4.1,5.6-7.6,5.8
	c-0.8,0-1.4,0.7-1.4,1.5v7.3v1.2V27c0,4.7,1.2,9.3,3.4,13.4S14.1,48,18,50.5l4.4,2.8c0.8,0.5,1.7,0.8,2.7,0.8c0.9,0,1.9-0.3,2.7-0.8
	l4.4-2.8c3.9-2.5,7.2-6,9.4-10.1C43.8,36.3,45,31.7,45,27V13.6C44.9,12.8,44.3,12.2,43.6,12.1z M43.2,26.9c0,4.4-1.1,8.7-3.2,12.5
	c-2.1,3.8-5.1,7.1-8.8,9.5l-4.4,2.8c-0.5,0.3-1.1,0.5-1.7,0.5s-1.2-0.2-1.7-0.5L19,49c-3.7-2.4-6.7-5.7-8.8-9.5
	C8.1,35.6,7,31.3,7,26.9V22l0,0v-8.2c2-0.2,3.8-0.9,5.4-2.1s2.7-2.8,3.4-4.7h18.6c0.7,1.9,1.8,3.5,3.4,4.7c1.6,1.2,3.4,2,5.4,2.1
	C43.2,13.8,43.2,26.9,43.2,26.9z"/>
<path class="st1" d="M50.2,17.4V10c0-1.7-1.4-3.1-3.1-3.1h-3c-1.8,0-3.2-1.5-3.2-3.2V2.9C40.9,1.3,39.6,0,38,0H12.2
	c-1.6,0-2.9,1.3-2.9,2.9v0.8c0,1.8-1.5,3.2-3.2,3.2h-3C1.4,6.9,0,8.3,0,10v17c0,5.5,1.4,11,4,15.9s6.5,9,11.1,12l6.3,4.1
	c1.1,0.7,2.4,1.1,3.6,1.1c1.3,0,2.5-0.4,3.6-1.1l6.3-4.1c4.6-3,8.5-7.2,11.1-12c2.6-4.9,4-10.4,4-15.9L50.2,17.4L50.2,17.4z
	 M34.1,53.4l-6.3,4.1c-1.6,1.1-3.7,1.1-5.4,0l-6.3-4.1C7.1,47.6,1.7,37.7,1.7,27V10c0-0.7,0.6-1.3,1.3-1.3h3c2.8,0,5-2.2,5-5V2.9
	c0-0.6,0.5-1.1,1.1-1.1H38c0.6,0,1.1,0.5,1.1,1.1v0.8c0,2.8,2.2,5,5,5h3c0.7,0,1.3,0.6,1.3,1.3v9.8l0,0V27
	C48.5,37.7,43.1,47.6,34.1,53.4z"/>
<path class="st1" d="M29.7,23.2l-6.2,6.6c0,0-0.1,0-0.2,0l-2.9-2.5C20,27,19.5,27,19.2,27.4c-0.3,0.4-0.3,0.9,0.1,1.2l2.9,2.5
	c0.3,0.3,0.8,0.4,1.2,0.4c0.5,0,1-0.2,1.4-0.6l6.2-6.6c0.3-0.4,0.3-0.9,0-1.2C30.6,22.9,30.1,22.9,29.7,23.2z"/>
<path class="st1" d="M25.1,14.4c-7.1,0-12.9,5.8-12.9,12.9S18,40.2,25.1,40.2S38,34.4,38,27.3S32.2,14.4,25.1,14.4z M25.1,38.4
	c-6.1,0-11.1-5-11.1-11.1s5-11.1,11.1-11.1s11.1,5,11.1,11.1S31.2,38.4,25.1,38.4z"/>
</svg>
